<svg width="56" height="46" viewBox="0 0 56 46" fill="none" xmlns="http://www.w3.org/2000/svg">
<path d="M22.4618 38.1978H3.91795C2.71307 38.1978 1.73633 37.4084 1.73633 36.4347V11.7506C1.73633 10.7768 2.71307 9.98743 3.91795 9.98743H9.37174" stroke="#353535" stroke-width="2" stroke-miterlimit="10" stroke-linecap="round" stroke-linejoin="round"/>
<path d="M24.6436 9.98743H30.0978C31.3027 9.98743 32.2794 10.7768 32.2794 11.7506V27.619" stroke="#353535" stroke-width="2" stroke-miterlimit="10" stroke-linecap="round" stroke-linejoin="round"/>
<path d="M24.6434 7.34265C24.6434 14.3953 17.0078 18.8031 17.0078 18.8031C17.0078 18.8031 9.37207 14.3953 9.37207 7.34265C9.37207 3.93449 12.7907 1.17163 17.0078 1.17163C21.2248 1.17163 24.6434 3.93449 24.6434 7.34265Z" stroke="#353535" stroke-width="2" stroke-miterlimit="10" stroke-linecap="round" stroke-linejoin="round"/>
<path d="M17.0078 9.10577C18.2127 9.10577 19.1894 8.31638 19.1894 7.34262C19.1894 6.36886 18.2127 5.57947 17.0078 5.57947C15.8029 5.57947 14.8262 6.36886 14.8262 7.34262C14.8262 8.31638 15.8029 9.10577 17.0078 9.10577Z" stroke="#353535" stroke-width="2" stroke-miterlimit="10" stroke-linecap="round" stroke-linejoin="round"/>
<path d="M26.1468 38.8526L23.8328 36.9825M23.8328 36.9825L22.2902 38.2293C21.4382 38.9178 21.4382 40.0342 22.2902 40.7227L26.1468 43.8396C27.8507 45.2167 30.6134 45.2167 32.3174 43.8396L39.2592 38.2293C40.9632 36.8522 40.9632 34.6194 39.2592 33.2423L33.86 28.8788L32.703 27.9437C32.064 27.4273 31.028 27.4273 30.3891 27.9437C29.7501 28.4601 29.7501 29.2974 30.3891 29.8138M23.8328 36.9825L19.2049 33.2423C18.3529 32.5538 18.3529 31.4374 19.2049 30.7489C20.0569 30.0603 21.4382 30.0603 22.2902 30.7489L26.9181 34.4891L25.7611 33.554C25.1221 33.0376 25.1221 32.2003 25.7611 31.6839C26.4001 31.1675 27.4361 31.1675 28.0751 31.6839M30.3891 29.8138L31.546 30.7489M30.3891 29.8138C29.7501 29.2974 28.7141 29.2974 28.0751 29.8138C27.4361 30.3302 27.4361 31.1675 28.0751 31.6839M28.0751 31.6839L29.2321 32.619" stroke="#353535" stroke-width="2" stroke-miterlimit="10" stroke-linecap="round" stroke-linejoin="round"/>
<path d="M41.0054 28.5004H54.0951" stroke="#353535" stroke-width="2" stroke-miterlimit="10" stroke-linecap="round" stroke-linejoin="round"/>
<path d="M44.2778 33.7898H54.0951" stroke="#353535" stroke-width="2" stroke-miterlimit="10" stroke-linecap="round" stroke-linejoin="round"/>
<path d="M43.187 39.0793H54.0951" stroke="#353535" stroke-width="2" stroke-miterlimit="10" stroke-linecap="round" stroke-linejoin="round"/>
<path d="M11.5537 22.3295H6.09961V27.6189H11.5537V22.3295Z" stroke="#353535" stroke-width="2" stroke-miterlimit="10" stroke-linecap="round" stroke-linejoin="round"/>
<path d="M6.09961 30.2637H11.5537" stroke="#353535" stroke-width="2" stroke-miterlimit="10" stroke-linecap="round" stroke-linejoin="round"/>
<path d="M6.09961 32.9083H11.5537" stroke="#353535" stroke-width="2" stroke-miterlimit="10" stroke-linecap="round" stroke-linejoin="round"/>
</svg>
