<svg width="49" height="44" viewBox="0 0 49 44" fill="none" xmlns="http://www.w3.org/2000/svg">
<path d="M47.9439 0.772002C47.6295 0.491364 47.1213 0.491364 46.8069 0.772002L43.8262 3.43267H25.1046L1.5689 24.614C1.03338 25.092 0.738281 25.7286 0.738281 26.4048C0.738281 27.0809 1.03338 27.7175 1.5689 28.1955L18.0254 42.8848C18.5778 43.3779 19.3023 43.6248 20.0284 43.6248C20.7577 43.6248 21.487 43.3758 22.0458 42.8777L44.9631 21.8686V4.44756L47.9439 1.78689C48.2583 1.50625 48.2583 1.05264 47.9439 0.772002ZM43.355 21.2858L20.9008 41.87C20.4216 42.2977 19.6416 42.2977 19.1624 41.87L2.70589 27.1806C2.22665 26.7529 2.22665 26.0566 2.7083 25.6267L25.7752 4.86816H42.218L38.3318 8.33701C37.6958 7.96091 36.9359 7.73913 36.1182 7.73913C33.9013 7.73913 32.0977 9.34903 32.0977 11.3278C32.0977 13.3067 33.9013 14.9166 36.1182 14.9166C38.335 14.9166 40.1386 13.3067 40.1386 11.3278C40.1386 10.5979 39.8901 9.91963 39.4688 9.3519L43.355 5.88305V21.2858ZM38.5304 11.3278C38.5304 12.515 37.4481 13.4811 36.1182 13.4811C34.7882 13.4811 33.7059 12.515 33.7059 11.3278C33.7059 10.1407 34.7882 9.17462 36.1182 9.17462C36.4897 9.17462 36.837 9.25644 37.1514 9.39066L35.5497 10.8204C35.2353 11.101 35.2353 11.5547 35.5497 11.8353C35.7065 11.9753 35.9123 12.0456 36.1182 12.0456C36.324 12.0456 36.5299 11.9753 36.6867 11.8353L38.2884 10.4055C38.4396 10.6862 38.5304 10.9962 38.5304 11.3278Z" fill="#353535"/>
</svg>
