<svg width="68" height="56" viewBox="0 0 68 56" fill="none" xmlns="http://www.w3.org/2000/svg">
<path d="M48.3063 47.468C48.9796 47.6358 49.691 47.3233 49.8952 46.7701C50.0994 46.2169 49.7191 45.6323 49.0458 45.4645L38.751 44.1835L31.5381 32.0168L31.5404 32.0139C31.4041 31.8091 31.1803 31.6687 30.9281 31.6068L11.4079 21.5947C11.0779 21.4899 10.707 21.6248 10.5794 21.8959C10.4518 22.167 10.6159 22.4718 10.9459 22.5766L29.9065 33.1015L37.099 45.2374C37.2165 45.456 37.4448 45.6329 37.7448 45.7081L38.047 44.8937L37.7474 45.7052L48.3063 47.4679L48.3063 47.468Z" fill="#353535"/>
<path d="M12.5873 20.0548C12.1312 20.8829 11.7568 21.5623 11.5473 21.9723C11.5077 22.0539 11.4298 22.123 11.3233 22.1597C11.1128 22.2322 10.8706 22.1508 10.7823 21.9779L10.7825 21.9778C10.5735 21.5685 10.1976 20.8862 9.73933 20.0541C8.97632 18.669 7.98753 16.8741 7.18739 15.2922C7.09892 15.1172 6.98942 14.909 6.88079 14.7022C6.05747 13.1356 5.26792 11.633 6.22538 9.885C6.65528 9.10011 7.35499 8.43606 8.22746 7.97247C9.07488 7.52217 10.0831 7.26074 11.1634 7.26074C12.3074 7.26074 13.3697 7.55338 14.2452 8.05267C15.145 8.56578 15.8464 9.29765 16.2355 10.1546C16.9973 11.8325 16.1369 13.4376 15.3277 14.947C15.1992 15.1867 15.0718 15.4243 14.9886 15.5869C14.2048 17.1183 13.2974 18.7656 12.5873 20.0548ZM11.1634 8.3837C10.046 8.3837 9.03426 8.75587 8.30204 9.35751C7.56979 9.95912 7.11682 10.7904 7.11682 11.7086C7.11682 12.6267 7.56979 13.458 8.30204 14.0596C9.03426 14.6613 10.046 15.0334 11.1634 15.0334C12.2809 15.0334 13.2927 14.6613 14.0249 14.0596C14.7572 13.458 15.2101 12.6267 15.2101 11.7086C15.2101 10.7904 14.7572 9.95913 14.0249 9.35751C13.2927 8.75587 12.2809 8.3837 11.1634 8.3837Z" fill="#686868"/>
<path fill-rule="evenodd" clip-rule="evenodd" d="M14.0243 14.0597C14.7566 13.4581 15.2095 12.6268 15.2095 11.7087C15.2095 10.7905 14.7566 9.95922 14.0243 9.3576C13.2921 8.75596 12.2803 8.38379 11.1628 8.38379C10.0454 8.38379 9.03365 8.75596 8.30144 9.3576C7.56918 9.95921 7.11621 10.7905 7.11621 11.7087C7.11621 12.6268 7.56918 13.4581 8.30144 14.0597C9.03365 14.6614 10.0454 15.0335 11.1628 15.0335C12.2803 15.0335 13.2921 14.6614 14.0243 14.0597Z" fill="white"/>
<path d="M13.8422 13.9097C14.1925 13.6219 14.4742 13.2793 14.6655 12.8999C14.8499 12.534 14.9517 12.1317 14.9517 11.7087C14.9517 11.2857 14.8499 10.8835 14.6655 10.5175C14.4742 10.1381 14.1925 9.79551 13.8422 9.50771C13.4919 9.21986 13.0749 8.98847 12.6131 8.83128C12.1677 8.67975 11.6782 8.59609 11.1634 8.59609C10.6486 8.59609 10.159 8.67975 9.71368 8.83128C9.25183 8.98847 8.83486 9.21986 8.48454 9.50771C8.13423 9.79551 7.85257 10.1381 7.66129 10.5176C7.47683 10.8835 7.37505 11.2857 7.37505 11.7087C7.37505 12.1317 7.47683 12.534 7.66129 12.8999C7.85257 13.2793 8.13423 13.6219 8.48454 13.9097C8.83486 14.1976 9.25183 14.429 9.71368 14.5861C10.159 14.7377 10.6486 14.8213 11.1634 14.8213C11.6782 14.8213 12.1677 14.7377 12.6131 14.5861C13.0749 14.429 13.4919 14.1976 13.8422 13.9097ZM15.1417 13.0607C14.9229 13.4948 14.6032 13.8846 14.2075 14.2098C13.8117 14.535 13.3372 14.7976 12.8088 14.9774C12.3007 15.1504 11.7448 15.2458 11.1634 15.2458C10.5819 15.2458 10.0261 15.1504 9.51793 14.9774C8.9895 14.7976 8.51507 14.535 8.11932 14.2098C7.72353 13.8847 7.40393 13.4948 7.18507 13.0607C6.9746 12.6432 6.8584 12.1865 6.8584 11.7087C6.8584 11.231 6.9746 10.7743 7.18507 10.3568C7.40393 9.9226 7.72353 9.53277 8.11932 9.2076C8.51507 8.88244 8.9895 8.61982 9.51793 8.44C10.0261 8.26707 10.5819 8.17163 11.1634 8.17163C11.7448 8.17163 12.3007 8.26707 12.8088 8.44C13.3372 8.61982 13.8117 8.88245 14.2075 9.2076C14.6032 9.53277 14.9229 9.92257 15.1417 10.3567C15.3522 10.7743 15.4683 11.231 15.4683 11.7087C15.4683 12.1865 15.3522 12.6432 15.1417 13.0607Z" fill="#7D7D7D"/>
<path d="M32.2598 29.9433C31.688 30.9814 31.2187 31.8332 30.956 32.3472C30.9063 32.4495 30.8087 32.5361 30.6752 32.5821C30.4113 32.673 30.1077 32.571 29.997 32.3542L29.9971 32.3541C29.7352 31.8409 29.264 30.9856 28.6893 29.9424C27.7328 28.2059 26.4932 25.9556 25.49 23.9724C25.3791 23.7531 25.2418 23.492 25.1056 23.2327C24.0735 21.2687 23.0836 19.3849 24.284 17.1934C24.8229 16.2094 25.7002 15.3769 26.7939 14.7957C27.8563 14.2312 29.1204 13.9034 30.4748 13.9034C31.909 13.9034 33.2407 14.2703 34.3383 14.8963C35.4664 15.5396 36.3458 16.4571 36.8336 17.5315C37.7887 19.635 36.7099 21.6473 35.6955 23.5396C35.5344 23.8402 35.3747 24.138 35.2704 24.3419C34.2878 26.2618 33.1501 28.327 32.2598 29.9433ZM30.4748 15.3113C29.0738 15.3113 27.8054 15.7779 26.8874 16.5322C25.9694 17.2864 25.4016 18.3286 25.4016 19.4797C25.4016 20.6307 25.9694 21.6729 26.8874 22.4271C27.8054 23.1814 29.0739 23.648 30.4748 23.648C31.8758 23.648 33.1442 23.1814 34.0622 22.4271C34.9802 21.6729 35.5481 20.6307 35.5481 19.4797C35.5481 18.3286 34.9802 17.2864 34.0622 16.5322C33.1441 15.7779 31.8758 15.3113 30.4748 15.3113Z" fill="#606060"/>
<path fill-rule="evenodd" clip-rule="evenodd" d="M34.0625 22.4272C34.9805 21.673 35.5484 20.6308 35.5484 19.4797C35.5484 18.3287 34.9805 17.2865 34.0625 16.5323C33.1444 15.778 31.8761 15.3114 30.4751 15.3114C29.0742 15.3114 27.8057 15.778 26.8877 16.5323C25.9697 17.2865 25.4019 18.3287 25.4019 19.4797C25.4019 20.6308 25.9697 21.673 26.8877 22.4272C27.8057 23.1815 29.0742 23.6481 30.4751 23.6481C31.8761 23.6481 33.1445 23.1815 34.0625 22.4272Z" fill="white"/>
<path d="M33.8332 22.2389C34.2724 21.878 34.6255 21.4485 34.8653 20.9728C35.0965 20.5141 35.2242 20.0097 35.2242 19.4795C35.2242 18.9492 35.0965 18.4448 34.8653 17.9861C34.6255 17.5104 34.2724 17.0809 33.8332 16.7201C33.394 16.3592 32.8712 16.0691 32.2922 15.8721C31.7339 15.6821 31.1201 15.5772 30.4747 15.5772C29.8294 15.5772 29.2155 15.6821 28.6573 15.8721C28.0783 16.0691 27.5555 16.3592 27.1163 16.7201C26.6771 17.0809 26.324 17.5104 26.0842 17.9862C25.853 18.4448 25.7253 18.9492 25.7253 19.4795C25.7253 20.0097 25.853 20.5141 26.0842 20.9728C26.324 21.4485 26.6771 21.878 27.1163 22.2389C27.5555 22.5997 28.0783 22.8898 28.6573 23.0869C29.2155 23.2769 29.8294 23.3817 30.4747 23.3817C31.1201 23.3817 31.7339 23.2769 32.2922 23.0869C32.8712 22.8898 33.394 22.5997 33.8332 22.2389ZM35.4623 21.1744C35.1879 21.7187 34.7872 22.2074 34.2911 22.6151C33.7949 23.0228 33.2001 23.352 32.5376 23.5774C31.9005 23.7942 31.2037 23.9139 30.4747 23.9139C29.7458 23.9139 29.0489 23.7942 28.4119 23.5774C27.7494 23.352 27.1546 23.0228 26.6584 22.6151C26.1622 22.2074 25.7615 21.7187 25.4872 21.1744C25.2233 20.651 25.0776 20.0784 25.0776 19.4795C25.0776 18.8805 25.2233 18.308 25.4872 17.7845C25.7615 17.2402 26.1622 16.7515 26.6584 16.3439C27.1546 15.9362 27.7494 15.607 28.4119 15.3815C29.0489 15.1647 29.7458 15.045 30.4747 15.045C31.2037 15.045 31.9005 15.1647 32.5376 15.3815C33.2001 15.607 33.7949 15.9362 34.2911 16.3439C34.7873 16.7515 35.1879 17.2402 35.4623 17.7845C35.7262 18.308 35.8718 18.8805 35.8718 19.4795C35.8718 20.0784 35.7262 20.651 35.4623 21.1744Z" fill="#767676"/>
<path d="M50.7626 43.8505C50.1491 44.9644 49.6456 45.8784 49.3637 46.4298C49.3104 46.5396 49.2056 46.6325 49.0624 46.6819C48.7793 46.7794 48.4535 46.6699 48.3348 46.4373L48.3349 46.4373C48.0538 45.8866 47.5483 44.9689 46.9317 43.8496C45.9053 41.9864 44.5753 39.572 43.499 37.4441C43.38 37.2088 43.2327 36.9286 43.0866 36.6505C41.9791 34.5432 40.917 32.522 42.205 30.1706C42.7833 29.1149 43.7245 28.2216 44.898 27.598C46.0379 26.9923 47.3942 26.6406 48.8474 26.6406C50.3862 26.6406 51.815 27.0343 52.9928 27.7059C54.2031 28.3961 55.1467 29.3806 55.6701 30.5333C56.6948 32.7903 55.5373 34.9494 54.4489 36.9797C54.2761 37.3022 54.1047 37.6218 53.9928 37.8405C52.9385 39.9005 51.7179 42.1163 50.7626 43.8505L50.7626 43.8505ZM48.8474 28.1512C47.3443 28.1512 45.9833 28.6518 44.9984 29.4611C44.0134 30.2704 43.4041 31.3886 43.4041 32.6236C43.4041 33.8587 44.0134 34.9769 44.9984 35.7861C45.9833 36.5954 47.3443 37.096 48.8474 37.096C50.3506 37.096 51.7115 36.5954 52.6965 35.7861C53.6815 34.9768 54.2908 33.8587 54.2908 32.6236C54.2908 31.3886 53.6815 30.2704 52.6965 29.4611C51.7115 28.6518 50.3506 28.1512 48.8474 28.1512Z" fill="#5F5F5F"/>
<path fill-rule="evenodd" clip-rule="evenodd" d="M54.2905 32.6237C54.2905 31.3886 53.6812 30.2704 52.6962 29.4612C51.7112 28.6519 50.3503 28.1512 48.8471 28.1512C47.344 28.1512 45.9831 28.6519 44.9981 29.4612C44.0131 30.2704 43.4038 31.3886 43.4038 32.6237C43.4038 33.8587 44.0131 34.9769 44.9981 35.7862C45.9831 36.5955 47.344 37.0961 48.8471 37.0961C50.3503 37.0961 51.7112 36.5955 52.6962 35.7862C53.6812 34.9769 54.2905 33.8587 54.2905 32.6237Z" fill="white"/>
<path d="M53.9428 32.6234C53.9428 32.0544 53.8059 31.5133 53.5578 31.0211C53.3005 30.5107 52.9216 30.0499 52.4504 29.6627C51.9791 29.2755 51.4183 28.9643 50.797 28.7528C50.198 28.549 49.5394 28.4365 48.8469 28.4365C48.1545 28.4365 47.4959 28.549 46.8969 28.7528C46.2757 28.9643 45.7148 29.2755 45.2435 29.6627C44.7723 30.0499 44.3934 30.5107 44.1361 31.0212C43.888 31.5133 43.7511 32.0544 43.7511 32.6234C43.7511 33.1924 43.888 33.7335 44.1361 34.2257C44.3934 34.7361 44.7723 35.1969 45.2435 35.5841C45.7148 35.9713 46.2757 36.2826 46.8969 36.494C47.4959 36.6978 48.1545 36.8103 48.8469 36.8103C49.5394 36.8103 50.198 36.6978 50.797 36.494C51.4183 36.2826 51.9791 35.9713 52.4504 35.5841C52.9216 35.1969 53.3005 34.7361 53.5578 34.2257C53.8059 33.7335 53.9428 33.1924 53.9428 32.6234ZM54.1984 30.8048C54.4815 31.3664 54.6378 31.9808 54.6378 32.6234C54.6378 33.266 54.4815 33.8804 54.1984 34.442C53.9039 35.026 53.474 35.5503 52.9417 35.9878C52.4093 36.4252 51.7711 36.7784 51.0603 37.0203C50.3768 37.2529 49.6291 37.3813 48.8469 37.3813C48.0648 37.3813 47.3171 37.2529 46.6336 37.0203C45.9228 36.7784 45.2846 36.4252 44.7523 35.9878C44.2198 35.5503 43.7899 35.026 43.4955 34.442C43.2124 33.8804 43.0562 33.266 43.0562 32.6234C43.0562 31.9808 43.2124 31.3664 43.4955 30.8048C43.7899 30.2208 44.2198 29.6965 44.7523 29.259C45.2846 28.8216 45.9228 28.4684 46.6336 28.2265C47.3171 27.9939 48.0648 27.8655 48.8469 27.8655C49.6291 27.8655 50.3768 27.9939 51.0603 28.2265C51.7711 28.4684 52.4093 28.8216 52.9417 29.259C53.474 29.6965 53.9039 30.2208 54.1984 30.8048Z" fill="#888888"/>
<path fill-rule="evenodd" clip-rule="evenodd" d="M9.75208 11.1876H12.5657C12.7194 11.1876 12.8441 11.29 12.8441 11.4164V13.7281C12.8441 13.8544 12.7194 13.9568 12.5657 13.9568H9.75208C9.59832 13.9568 9.47363 13.8544 9.47363 13.7281V11.4164C9.47363 11.29 9.59832 11.1876 9.75208 11.1876Z" fill="#383838"/>
<path d="M8.53768 11.2286L10.9842 9.60414L10.9837 9.6037C11.0931 9.53108 11.2491 9.53765 11.3489 9.61448L13.7946 11.2384L13.6206 11.4162L13.7956 11.2383C13.9152 11.3177 13.9337 11.4617 13.8371 11.56C13.7822 11.6159 13.7017 11.6449 13.6206 11.6449V11.645H8.69686C8.54311 11.645 8.41846 11.5426 8.41846 11.4162C8.41846 11.3386 8.46562 11.2699 8.53768 11.2286Z" fill="#5F5F5F"/>
<path fill-rule="evenodd" clip-rule="evenodd" d="M10.7002 12.0958H11.6427V13.7042H10.7002V12.0958Z" fill="#9B9B9C"/>
<path fill-rule="evenodd" clip-rule="evenodd" d="M45.7866 30.2704C48.8811 30.2704 48.8143 30.2704 51.9082 30.2704C52.0816 30.2704 52.2221 30.3664 52.2221 30.4848V34.7623C52.2221 34.8807 52.0816 34.9767 51.9082 34.9767H45.7866C45.6132 34.9767 45.4727 34.8807 45.4727 34.7623V30.4848C45.4727 30.3664 45.6132 30.2704 45.7866 30.2704Z" fill="#8E8E8F"/>
<path fill-rule="evenodd" clip-rule="evenodd" d="M49.6713 30.2704H48.0229V31.4964V31.5047L48.1599 31.6452L48.2972 31.5041L48.4349 31.6452L48.5722 31.5041L48.7098 31.6452L48.8471 31.5041L48.9844 31.6452L49.122 31.5041L49.2593 31.6452L49.397 31.5041L49.5343 31.6452L49.6713 31.5047V31.5041V30.2704Z" fill="#C4C4C4"/>
<path fill-rule="evenodd" clip-rule="evenodd" d="M50.1516 33.6887V32.952H50.5396L49.764 32.2152L48.9888 32.952H49.3764V33.6887H50.1516Z" fill="#383838"/>
<path fill-rule="evenodd" clip-rule="evenodd" d="M48.3126 33.6886V32.9518H48.7002L47.925 32.2151L47.1494 32.9518H47.5374V33.6886H48.3126Z" fill="#383838"/>
<path fill-rule="evenodd" clip-rule="evenodd" d="M47.144 33.9401H50.5495V34.1801H47.144V33.9401Z" fill="#383838"/>
<path d="M32.2634 20.725C32.8161 20.725 33.2641 20.5178 33.2641 20.2622C33.2641 20.0065 32.8161 19.7993 32.2634 19.7993C31.7107 19.7993 31.2627 20.0065 31.2627 20.2622C31.2627 20.5178 31.7107 20.725 32.2634 20.725Z" fill="#5D5D5D"/>
<path fill-rule="evenodd" clip-rule="evenodd" d="M32.3046 19.9432C32.3056 19.9296 32.3198 19.9192 32.3364 19.92V19.92C32.3592 19.9211 32.3814 19.923 32.4028 19.9257C32.4238 19.9283 32.4449 19.9318 32.466 19.936C32.4673 19.9362 32.4685 19.9364 32.4698 19.9368C32.4857 19.9409 32.4946 19.9547 32.4896 19.9678L32.4895 19.9677L32.489 19.9693L32.5099 19.9746L32.5099 19.9745C32.5102 19.9735 32.5105 19.9726 32.511 19.9717C32.5169 19.9589 32.5343 19.9525 32.5498 19.9574V19.9574C32.5703 19.9638 32.5907 19.9711 32.6109 19.9792C32.6306 19.9872 32.6495 19.9956 32.6676 20.0046C32.6687 20.0051 32.6698 20.0057 32.6709 20.0063C32.6846 20.0141 32.688 20.0295 32.6785 20.0407L32.6784 20.0406L32.6773 20.0419L32.6954 20.0522C32.696 20.0514 32.6967 20.0505 32.6974 20.0498C32.7077 20.039 32.7266 20.0371 32.7397 20.0456V20.0456C32.7565 20.0565 32.7733 20.0684 32.79 20.0815C32.8058 20.0937 32.8207 20.1063 32.8346 20.1193C32.8356 20.1201 32.8366 20.121 32.8375 20.1219C32.8477 20.1327 32.8454 20.1482 32.8322 20.1566H32.8322L32.8309 20.1575L32.8443 20.1717L32.8448 20.1713C32.8456 20.1708 32.8463 20.1703 32.8471 20.1699C32.8608 20.1621 32.8795 20.165 32.889 20.1762L32.8889 20.1763C32.9017 20.1916 32.9135 20.2071 32.9242 20.2228C32.9342 20.2374 32.9437 20.253 32.9527 20.2694C32.9535 20.2706 32.9541 20.2718 32.9548 20.2731C32.9606 20.2859 32.9527 20.3001 32.9371 20.3049L32.937 20.3048L32.9352 20.3054L32.9429 20.3223C32.944 20.3219 32.9452 20.3215 32.9465 20.3212C32.9623 20.3172 32.9792 20.3245 32.9841 20.3375L32.984 20.3376C32.9905 20.355 32.9961 20.3727 33.0007 20.3907C33.0051 20.408 33.0086 20.4255 33.0111 20.4432C33.0113 20.4441 33.0114 20.4451 33.0115 20.4461C33.0124 20.4598 32.9997 20.4714 32.9831 20.4722L32.9831 20.4721L32.9812 20.4722L32.9824 20.4902C32.9836 20.4901 32.9848 20.49 32.986 20.49C33.0027 20.4901 33.0161 20.5012 33.016 20.5148H33.0159C33.0158 20.5334 33.0147 20.5517 33.0126 20.5696C33.0106 20.5875 33.0075 20.6049 33.0037 20.622C33.0035 20.623 33.0033 20.6241 33.0029 20.6252C32.9989 20.6385 32.9825 20.6465 32.9664 20.6431V20.6431L32.9645 20.6427L32.9591 20.6601L32.9595 20.6602C32.9606 20.6604 32.9617 20.6606 32.9628 20.6609C32.9786 20.665 32.9874 20.6789 32.9824 20.692V20.6919C32.9758 20.7089 32.9681 20.726 32.9592 20.7433C32.9506 20.76 32.9413 20.776 32.9314 20.7913C32.9308 20.7922 32.9303 20.7932 32.9296 20.794C32.9209 20.8057 32.9024 20.8093 32.8882 20.8021L32.8866 20.8013L32.8752 20.8166L32.876 20.817C32.8768 20.8174 32.8775 20.8178 32.8782 20.8182C32.8918 20.826 32.8952 20.8415 32.8856 20.8526L32.8855 20.8526C32.8725 20.8679 32.8589 20.8823 32.8449 20.8959C32.8311 20.9093 32.8164 20.9222 32.8011 20.9347C32.8002 20.9355 32.7992 20.9363 32.7982 20.9371C32.7857 20.946 32.7667 20.945 32.7558 20.9347L32.7546 20.9336L32.7382 20.9453L32.7387 20.9459C32.7393 20.9464 32.7399 20.947 32.7404 20.9475C32.7506 20.9584 32.7482 20.9739 32.735 20.9822L32.7349 20.9822C32.7126 20.9964 32.6892 21.0096 32.6648 21.0216C32.641 21.0333 32.6165 21.0439 32.5914 21.0532C32.5904 21.0537 32.5893 21.0541 32.5881 21.0544C32.5726 21.0593 32.5552 21.0529 32.5493 21.0401L32.5494 21.04L32.5487 21.0386L32.5282 21.045C32.5287 21.0459 32.5292 21.0469 32.5296 21.0479C32.5345 21.0609 32.5257 21.0748 32.5098 21.0788L32.5097 21.0788C32.4822 21.0859 32.4536 21.0917 32.4241 21.0962C32.3961 21.1004 32.3675 21.1033 32.3386 21.1047C32.3373 21.1049 32.336 21.1049 32.3347 21.1049C32.318 21.1049 32.3046 21.0939 32.3046 21.0802V21.0787H32.2828V21.0802C32.2828 21.0807 32.2827 21.0812 32.2827 21.0816C32.2817 21.0953 32.2675 21.1057 32.2509 21.1049V21.1048C32.2281 21.1037 32.206 21.1018 32.1846 21.0992C32.1635 21.0965 32.1424 21.0931 32.1213 21.0888C32.12 21.0886 32.1188 21.0884 32.1175 21.0881C32.1016 21.084 32.0928 21.0701 32.0977 21.0571H32.0978L32.0984 21.0556L32.0775 21.0502L32.0774 21.0503C32.0771 21.0513 32.0768 21.0522 32.0764 21.0531C32.0705 21.0659 32.0531 21.0723 32.0375 21.0675L32.0376 21.0674C32.017 21.0611 31.9966 21.0538 31.9765 21.0456C31.9568 21.0377 31.9379 21.0292 31.9198 21.0202C31.9187 21.0197 31.9175 21.0192 31.9164 21.0186C31.9027 21.0108 31.8994 20.9954 31.9088 20.9842L31.9089 20.9842L31.91 20.9829L31.892 20.9726C31.8913 20.9735 31.8907 20.9743 31.8899 20.9751C31.8796 20.9858 31.8607 20.9877 31.8476 20.9793L31.8477 20.9792C31.8309 20.9684 31.814 20.9564 31.7973 20.9434C31.7815 20.9311 31.7667 20.9185 31.7527 20.9056C31.7517 20.9047 31.7507 20.9039 31.7498 20.9029C31.7396 20.8921 31.742 20.8766 31.7551 20.8682H31.7551L31.7564 20.8673L31.743 20.8532L31.7425 20.8535C31.7418 20.854 31.741 20.8545 31.7402 20.855C31.7265 20.8627 31.7078 20.8599 31.6984 20.8486L31.6985 20.8486C31.6856 20.8333 31.6739 20.8178 31.6632 20.802C31.6531 20.7874 31.6437 20.7718 31.6347 20.7554C31.6339 20.7542 31.6332 20.753 31.6326 20.7518C31.6267 20.739 31.6347 20.7247 31.6502 20.7199L31.6503 20.72L31.6521 20.7195L31.6444 20.7026C31.6433 20.703 31.6421 20.7033 31.6409 20.7037C31.625 20.7077 31.6082 20.7004 31.6033 20.6873L31.6033 20.6873C31.5968 20.6699 31.5912 20.6521 31.5867 20.6342C31.5822 20.6169 31.5787 20.5993 31.5763 20.5817C31.576 20.5807 31.5759 20.5797 31.5758 20.5787C31.5749 20.5651 31.5876 20.5534 31.6042 20.5527L31.6043 20.5527L31.6061 20.5526L31.6049 20.5346C31.6037 20.5348 31.6025 20.5348 31.6013 20.5348C31.5846 20.5348 31.5712 20.5236 31.5713 20.51H31.5714C31.5715 20.4914 31.5726 20.4731 31.5747 20.4552C31.5768 20.4374 31.5798 20.4199 31.5836 20.4029C31.5838 20.4018 31.5841 20.4007 31.5844 20.3996C31.5885 20.3864 31.6048 20.3784 31.6209 20.3817V20.3818L31.6228 20.3821L31.6282 20.3647L31.6278 20.3646C31.6267 20.3644 31.6256 20.3642 31.6245 20.3639C31.6087 20.3598 31.5999 20.3459 31.6049 20.3329C31.6115 20.316 31.6193 20.2988 31.6281 20.2816C31.6367 20.2649 31.646 20.2489 31.656 20.2335C31.6565 20.2326 31.657 20.2317 31.6577 20.2308C31.6664 20.2192 31.685 20.2156 31.6991 20.2227L31.7007 20.2235L31.7122 20.2082L31.7114 20.2078C31.7106 20.2075 31.7098 20.2071 31.7091 20.2067C31.6955 20.1988 31.6922 20.1834 31.7017 20.1722L31.7018 20.1723C31.7148 20.157 31.7284 20.1425 31.7424 20.1289C31.7563 20.1155 31.7709 20.1026 31.7862 20.0902C31.7871 20.0893 31.7881 20.0885 31.7891 20.0878C31.8017 20.0788 31.8207 20.0799 31.8316 20.0902V20.0902L31.8327 20.0913L31.8492 20.0795L31.8486 20.079C31.8481 20.0784 31.8475 20.0779 31.8469 20.0773C31.8367 20.0665 31.8392 20.0509 31.8523 20.0426L31.8524 20.0426C31.8747 20.0285 31.8982 20.0153 31.9225 20.0033C31.9463 19.9916 31.9708 19.981 31.9959 19.9716C31.9969 19.9712 31.998 19.9708 31.9992 19.9704C32.0147 19.9656 32.0321 19.972 32.038 19.9848L32.038 19.9848L32.0386 19.9863L32.0591 19.9799C32.0586 19.9789 32.0581 19.978 32.0578 19.977C32.0528 19.964 32.0616 19.9501 32.0775 19.946L32.0776 19.946C32.1052 19.9389 32.1337 19.9331 32.1631 19.9287C32.1912 19.9245 32.2198 19.9216 32.2487 19.9201C32.25 19.92 32.2513 19.9199 32.2527 19.9199C32.2693 19.9199 32.2828 19.931 32.2828 19.9447V19.9461H32.3046V19.9447C32.3046 19.9442 32.3046 19.9437 32.3046 19.9432ZM32.2937 20.1915C32.4015 20.1915 32.4991 20.2275 32.5698 20.2855C32.6405 20.3436 32.6842 20.4238 32.6842 20.5124C32.6842 20.601 32.6405 20.6812 32.5698 20.7393C32.4991 20.7974 32.4015 20.8333 32.2937 20.8333C32.1858 20.8333 32.0882 20.7974 32.0175 20.7393C31.9468 20.6812 31.9031 20.601 31.9031 20.5124C31.9031 20.4238 31.9468 20.3436 32.0175 20.2855C32.0882 20.2275 32.1858 20.1915 32.2937 20.1915Z" fill="#3E3E3E"/>
<path fill-rule="evenodd" clip-rule="evenodd" d="M32.2931 20.1271C32.4226 20.1271 32.5398 20.1702 32.6247 20.2399C32.7095 20.3096 32.762 20.4059 32.762 20.5124C32.762 20.6187 32.7095 20.715 32.6247 20.7848C32.5398 20.8545 32.4226 20.8976 32.2931 20.8976C32.1636 20.8976 32.0464 20.8545 31.9615 20.7848C31.8767 20.715 31.8242 20.6187 31.8242 20.5124C31.8242 20.4059 31.8767 20.3096 31.9615 20.2399C32.0464 20.1702 32.1636 20.1271 32.2931 20.1271ZM32.2931 20.1915C32.401 20.1915 32.4986 20.2274 32.5693 20.2855C32.6399 20.3435 32.6837 20.4237 32.6837 20.5124C32.6837 20.6009 32.6399 20.6812 32.5693 20.7392C32.4986 20.7973 32.401 20.8332 32.2931 20.8332C32.1853 20.8332 32.0877 20.7973 32.017 20.7392C31.9463 20.6812 31.9026 20.6009 31.9026 20.5124C31.9026 20.4237 31.9463 20.3435 32.017 20.2855C32.0877 20.2274 32.1853 20.1915 32.2931 20.1915Z" fill="#363636"/>
<path fill-rule="evenodd" clip-rule="evenodd" d="M32.2937 20.2836C32.3706 20.2836 32.4402 20.3092 32.4906 20.3506C32.541 20.392 32.5722 20.4492 32.5722 20.5124C32.5722 20.5756 32.541 20.6328 32.4906 20.6743C32.4402 20.7157 32.3706 20.7413 32.2937 20.7413C32.2168 20.7413 32.1471 20.7157 32.0967 20.6743C32.0463 20.6328 32.0151 20.5756 32.0151 20.5124C32.0151 20.4492 32.0463 20.392 32.0967 20.3506C32.1471 20.3092 32.2168 20.2836 32.2937 20.2836Z" fill="#616161"/>
<path fill-rule="evenodd" clip-rule="evenodd" d="M32.3659 20.5127C32.3659 20.4964 32.3579 20.4817 32.3448 20.471C32.3318 20.4603 32.3139 20.4537 32.294 20.4537C32.2742 20.4537 32.2562 20.4603 32.2432 20.471C32.2302 20.4817 32.2222 20.4964 32.2222 20.5127C32.2222 20.529 32.2302 20.5438 32.2432 20.5544C32.2562 20.5651 32.2742 20.5717 32.294 20.5717C32.3139 20.5717 32.3318 20.5651 32.3448 20.5544C32.3579 20.5438 32.3659 20.529 32.3659 20.5127Z" fill="#353535"/>
<path fill-rule="evenodd" clip-rule="evenodd" d="M32.294 20.2403C32.3144 20.2403 32.3344 20.2421 32.3539 20.2455C32.3737 20.2489 32.3928 20.2541 32.411 20.2608L32.4013 20.2787L32.411 20.2607C32.4209 20.2644 32.4263 20.2728 32.425 20.2812C32.4223 20.3216 32.4082 20.3579 32.3868 20.3843C32.3633 20.4135 32.3307 20.4314 32.294 20.4314C32.2573 20.4314 32.2248 20.4135 32.2012 20.3843C32.1796 20.3575 32.1654 20.3206 32.1629 20.2796H32.1629C32.1623 20.2707 32.1691 20.2629 32.1789 20.2601C32.1966 20.2537 32.215 20.2488 32.2341 20.2455C32.2536 20.2421 32.2736 20.2403 32.294 20.2403ZM32.6011 20.4178C32.6088 20.4323 32.6148 20.4475 32.6189 20.4632C32.623 20.4792 32.6252 20.4956 32.6252 20.5124C32.6252 20.5292 32.623 20.5456 32.6189 20.5616C32.6147 20.5778 32.6084 20.5935 32.6002 20.6085L32.5785 20.6005L32.6003 20.6085C32.5959 20.6167 32.5856 20.6211 32.5754 20.62C32.5263 20.6178 32.4821 20.6062 32.45 20.5887C32.4143 20.5693 32.3925 20.5426 32.3925 20.5124C32.3925 20.4822 32.4143 20.4555 32.45 20.4361C32.4825 20.4184 32.5274 20.4067 32.5773 20.4047V20.4046C32.5882 20.4042 32.5977 20.4098 32.6011 20.4178ZM31.9869 20.607C31.9792 20.5924 31.9732 20.5773 31.9691 20.5616C31.965 20.5456 31.9628 20.5292 31.9628 20.5124C31.9628 20.4956 31.965 20.4792 31.9691 20.4632C31.9733 20.4469 31.9796 20.4312 31.9878 20.4163L32.0095 20.4243L31.9877 20.4162C31.9921 20.4081 32.0024 20.4037 32.0126 20.4048C32.0617 20.407 32.1059 20.4186 32.1381 20.4361C32.1737 20.4555 32.1955 20.4822 32.1955 20.5124C32.1955 20.5426 32.1737 20.5693 32.1381 20.5887C32.1055 20.6064 32.0606 20.6181 32.0107 20.6201V20.6202C31.9998 20.6206 31.9903 20.615 31.9869 20.607ZM32.294 20.4536C32.3138 20.4536 32.3317 20.4602 32.3446 20.4708C32.3576 20.4814 32.3656 20.4962 32.3656 20.5124C32.3656 20.5286 32.3576 20.5433 32.3446 20.554C32.3317 20.5646 32.3138 20.5712 32.294 20.5712C32.2742 20.5712 32.2563 20.5646 32.2434 20.554C32.2305 20.5433 32.2224 20.5286 32.2224 20.5124C32.2224 20.4962 32.2305 20.4814 32.2434 20.4708C32.2563 20.4602 32.2742 20.4536 32.294 20.4536ZM32.4091 20.7647C32.3914 20.7711 32.373 20.776 32.3539 20.7793C32.3344 20.7827 32.3144 20.7845 32.294 20.7845C32.2736 20.7845 32.2536 20.7827 32.2341 20.7793C32.2144 20.7759 32.1952 20.7707 32.177 20.764L32.1867 20.7461L32.177 20.7641C32.1671 20.7604 32.1617 20.752 32.163 20.7436C32.1657 20.7032 32.1798 20.667 32.2012 20.6405C32.2248 20.6112 32.2573 20.5934 32.294 20.5934C32.3307 20.5934 32.3633 20.6112 32.3868 20.6405C32.4084 20.6673 32.4227 20.7042 32.4251 20.7452H32.4252C32.4257 20.7541 32.4189 20.7619 32.4091 20.7647ZM32.5761 20.2806C32.5039 20.2213 32.4042 20.1846 32.294 20.1846C32.1838 20.1846 32.0841 20.2213 32.0119 20.2806C31.9397 20.3399 31.895 20.4219 31.895 20.5124C31.895 20.6029 31.9397 20.6849 32.0119 20.7442C32.0841 20.8035 32.1838 20.8402 32.294 20.8402C32.4042 20.8402 32.5039 20.8035 32.5761 20.7442C32.6484 20.6849 32.693 20.6029 32.693 20.5124C32.693 20.4219 32.6484 20.3399 32.5761 20.2806Z" fill="#DCDCDC"/>
<path d="M28.3684 20.725C28.921 20.725 29.3691 20.5178 29.3691 20.2622C29.3691 20.0065 28.921 19.7993 28.3684 19.7993C27.8157 19.7993 27.3677 20.0065 27.3677 20.2622C27.3677 20.5178 27.8157 20.725 28.3684 20.725Z" fill="#5D5D5D"/>
<path fill-rule="evenodd" clip-rule="evenodd" d="M28.4096 19.9432C28.4106 19.9296 28.4248 19.9192 28.4414 19.92V19.92C28.4642 19.9211 28.4863 19.923 28.5077 19.9257C28.5288 19.9283 28.5499 19.9318 28.571 19.936C28.5723 19.9362 28.5735 19.9364 28.5748 19.9368C28.5907 19.9409 28.5995 19.9547 28.5946 19.9678L28.5945 19.9677L28.5939 19.9693L28.6148 19.9746L28.6149 19.9745C28.6152 19.9735 28.6155 19.9726 28.6159 19.9717C28.6218 19.9589 28.6392 19.9525 28.6548 19.9574L28.6547 19.9574C28.6753 19.9638 28.6957 19.9711 28.7158 19.9792C28.7355 19.9872 28.7544 19.9956 28.7725 20.0046C28.7736 20.0051 28.7748 20.0057 28.7759 20.0063C28.7896 20.0141 28.7929 20.0295 28.7835 20.0407L28.7834 20.0406L28.7823 20.0419L28.8003 20.0522C28.8009 20.0514 28.8016 20.0505 28.8024 20.0498C28.8127 20.039 28.8316 20.0371 28.8447 20.0456L28.8446 20.0456C28.8614 20.0565 28.8782 20.0684 28.895 20.0815C28.9108 20.0937 28.9256 20.1063 28.9396 20.1193C28.9406 20.1201 28.9416 20.121 28.9425 20.1219C28.9527 20.1327 28.9503 20.1482 28.9372 20.1566H28.9372L28.9359 20.1575L28.9492 20.1717L28.9498 20.1713C28.9505 20.1708 28.9513 20.1703 28.9521 20.1699C28.9658 20.1621 28.9845 20.165 28.9939 20.1762L28.9938 20.1763C29.0066 20.1916 29.0185 20.2071 29.0292 20.2228C29.0392 20.2374 29.0486 20.253 29.0576 20.2694C29.0584 20.2706 29.0591 20.2718 29.0597 20.2731C29.0655 20.2859 29.0576 20.3001 29.0421 20.3049L29.042 20.3048L29.0402 20.3054L29.0479 20.3223C29.049 20.3219 29.0502 20.3215 29.0514 20.3212C29.0673 20.3172 29.0842 20.3245 29.089 20.3375L29.089 20.3376C29.0955 20.355 29.1011 20.3727 29.1056 20.3907C29.1101 20.408 29.1135 20.4255 29.116 20.4432C29.1162 20.4441 29.1164 20.4451 29.1165 20.4461C29.1174 20.4598 29.1046 20.4714 29.088 20.4722V20.4721L29.0862 20.4722L29.0874 20.4902C29.0886 20.4901 29.0898 20.49 29.091 20.49C29.1077 20.4901 29.1211 20.5012 29.121 20.5148H29.1209C29.1208 20.5334 29.1197 20.5517 29.1176 20.5696C29.1155 20.5875 29.1125 20.6049 29.1087 20.622C29.1085 20.623 29.1082 20.6241 29.1079 20.6252C29.1038 20.6385 29.0875 20.6465 29.0714 20.6431V20.6431L29.0695 20.6427L29.0641 20.6601L29.0645 20.6602C29.0655 20.6604 29.0667 20.6606 29.0678 20.6609C29.0836 20.665 29.0924 20.6789 29.0874 20.692V20.6919C29.0808 20.7089 29.073 20.726 29.0642 20.7433C29.0556 20.76 29.0463 20.776 29.0363 20.7913C29.0358 20.7922 29.0353 20.7932 29.0346 20.794C29.0259 20.8057 29.0073 20.8093 28.9932 20.8021L28.9916 20.8013L28.9801 20.8166L28.981 20.817C28.9817 20.8174 28.9825 20.8178 28.9832 20.8182C28.9968 20.826 29.0001 20.8415 28.9906 20.8526L28.9905 20.8526C28.9775 20.8679 28.9639 20.8823 28.9498 20.8959C28.936 20.9093 28.9214 20.9222 28.9061 20.9347C28.9052 20.9355 28.9042 20.9363 28.9032 20.9371C28.8906 20.946 28.8716 20.945 28.8607 20.9347L28.8596 20.9336L28.8431 20.9453L28.8437 20.9459C28.8442 20.9464 28.8449 20.947 28.8454 20.9475C28.8556 20.9584 28.8531 20.9739 28.84 20.9822L28.8399 20.9822C28.8176 20.9964 28.7941 21.0096 28.7698 21.0216C28.7459 21.0333 28.7215 21.0439 28.6964 21.0532C28.6953 21.0537 28.6943 21.0541 28.6931 21.0544C28.6776 21.0593 28.6602 21.0529 28.6543 21.0401L28.6543 21.04L28.6537 21.0386L28.6332 21.045C28.6337 21.0459 28.6341 21.0469 28.6345 21.0479C28.6395 21.0609 28.6306 21.0748 28.6148 21.0788L28.6147 21.0788C28.5871 21.0859 28.5585 21.0917 28.5291 21.0962C28.501 21.1004 28.4725 21.1033 28.4436 21.1047C28.4423 21.1049 28.441 21.1049 28.4396 21.1049C28.423 21.1049 28.4095 21.0939 28.4095 21.0802V21.0787H28.3877V21.0802C28.3877 21.0807 28.3877 21.0812 28.3877 21.0816C28.3867 21.0953 28.3725 21.1057 28.3559 21.1049L28.3559 21.1048C28.3331 21.1037 28.3109 21.1018 28.2895 21.0992C28.2685 21.0965 28.2473 21.0931 28.2263 21.0888C28.225 21.0886 28.2237 21.0884 28.2224 21.0881C28.2066 21.084 28.1977 21.0701 28.2027 21.0571H28.2028L28.2033 21.0556L28.1824 21.0502L28.1824 21.0503C28.1821 21.0513 28.1818 21.0522 28.1813 21.0531C28.1754 21.0659 28.158 21.0723 28.1425 21.0675V21.0674C28.122 21.0611 28.1016 21.0538 28.0814 21.0456C28.0617 21.0377 28.0428 21.0292 28.0247 21.0202C28.0236 21.0197 28.0225 21.0192 28.0214 21.0186C28.0077 21.0108 28.0043 20.9954 28.0138 20.9842L28.0139 20.9842L28.015 20.9829L27.9969 20.9726C27.9963 20.9735 27.9956 20.9743 27.9949 20.9751C27.9846 20.9858 27.9657 20.9877 27.9526 20.9793V20.9792C27.9358 20.9684 27.919 20.9564 27.9023 20.9434C27.8865 20.9311 27.8716 20.9185 27.8577 20.9056C27.8567 20.9047 27.8557 20.9039 27.8548 20.9029C27.8446 20.8921 27.8469 20.8766 27.8601 20.8682H27.8601L27.8614 20.8673L27.848 20.8532L27.8475 20.8535C27.8467 20.854 27.846 20.8545 27.8452 20.855C27.8315 20.8627 27.8128 20.8599 27.8033 20.8486L27.8034 20.8486C27.7906 20.8333 27.7788 20.8178 27.7681 20.802C27.7581 20.7874 27.7486 20.7718 27.7396 20.7554C27.7388 20.7542 27.7381 20.753 27.7375 20.7518C27.7317 20.739 27.7396 20.7247 27.7552 20.7199L27.7553 20.72L27.7571 20.7195L27.7494 20.7026C27.7483 20.703 27.7471 20.7033 27.7458 20.7037C27.73 20.7077 27.7131 20.7004 27.7082 20.6873L27.7083 20.6873C27.7018 20.6699 27.6962 20.6521 27.6916 20.6342C27.6872 20.6169 27.6837 20.5993 27.6812 20.5817C27.681 20.5807 27.6809 20.5797 27.6808 20.5787C27.6799 20.5651 27.6926 20.5534 27.7092 20.5527V20.5527L27.7111 20.5526L27.7099 20.5346C27.7087 20.5348 27.7075 20.5348 27.7063 20.5348C27.6896 20.5348 27.6762 20.5236 27.6763 20.51H27.6764C27.6765 20.4914 27.6776 20.4731 27.6797 20.4552C27.6817 20.4374 27.6848 20.4199 27.6886 20.4029C27.6888 20.4018 27.689 20.4007 27.6894 20.3996C27.6934 20.3864 27.7098 20.3784 27.7259 20.3817V20.3818L27.7278 20.3821L27.7331 20.3647L27.7328 20.3646C27.7317 20.3644 27.7306 20.3642 27.7295 20.3639C27.7137 20.3598 27.7049 20.3459 27.7099 20.3329C27.7165 20.316 27.7242 20.2988 27.7331 20.2816C27.7417 20.2649 27.751 20.2489 27.7609 20.2335C27.7614 20.2326 27.762 20.2317 27.7627 20.2308C27.7714 20.2192 27.7899 20.2156 27.8041 20.2227L27.8057 20.2235L27.8171 20.2082L27.8163 20.2078C27.8155 20.2075 27.8148 20.2071 27.8141 20.2067C27.8005 20.1988 27.7971 20.1834 27.8067 20.1722L27.8068 20.1723C27.8198 20.157 27.8334 20.1425 27.8474 20.1289C27.8612 20.1155 27.8758 20.1026 27.8912 20.0902C27.8921 20.0893 27.8931 20.0885 27.8941 20.0878C27.9066 20.0788 27.9256 20.0799 27.9365 20.0902V20.0902L27.9377 20.0913L27.9541 20.0795L27.9536 20.079C27.953 20.0784 27.9524 20.0779 27.9519 20.0773C27.9417 20.0665 27.9441 20.0509 27.9573 20.0426L27.9574 20.0426C27.9797 20.0285 28.0031 20.0153 28.0275 20.0033C28.0513 19.9916 28.0758 19.981 28.1009 19.9716C28.1019 19.9712 28.103 19.9708 28.1041 19.9704C28.1197 19.9656 28.1371 19.972 28.143 19.9848L28.1429 19.9848L28.1436 19.9863L28.1641 19.9799C28.1636 19.9789 28.1631 19.978 28.1627 19.977C28.1578 19.964 28.1666 19.9501 28.1825 19.946L28.1826 19.946C28.2101 19.9389 28.2387 19.9331 28.2681 19.9287C28.2962 19.9245 28.3248 19.9216 28.3537 19.9201C28.355 19.92 28.3563 19.9199 28.3576 19.9199C28.3743 19.9199 28.3877 19.931 28.3877 19.9447V19.9461H28.4095V19.9447C28.4095 19.9442 28.4096 19.9437 28.4096 19.9432ZM28.3986 20.1915C28.5065 20.1915 28.6041 20.2275 28.6748 20.2855C28.7455 20.3436 28.7892 20.4238 28.7892 20.5124C28.7892 20.601 28.7455 20.6812 28.6748 20.7393C28.6041 20.7974 28.5065 20.8333 28.3986 20.8333C28.2908 20.8333 28.1932 20.7974 28.1225 20.7393C28.0518 20.6812 28.0081 20.601 28.0081 20.5124C28.0081 20.4238 28.0518 20.3436 28.1225 20.2855C28.1932 20.2275 28.2908 20.1915 28.3986 20.1915Z" fill="#3E3E3E"/>
<path fill-rule="evenodd" clip-rule="evenodd" d="M28.3986 20.127C28.5281 20.127 28.6453 20.1701 28.7302 20.2398C28.815 20.3095 28.8675 20.4058 28.8675 20.5122C28.8675 20.6186 28.815 20.7149 28.7302 20.7847C28.6453 20.8544 28.5281 20.8975 28.3986 20.8975C28.2691 20.8975 28.1519 20.8544 28.067 20.7847C27.9822 20.7149 27.9297 20.6186 27.9297 20.5122C27.9297 20.4058 27.9822 20.3095 28.067 20.2398C28.1519 20.1701 28.2691 20.127 28.3986 20.127ZM28.3986 20.1913C28.5065 20.1913 28.6041 20.2273 28.6748 20.2853C28.7454 20.3434 28.7892 20.4236 28.7892 20.5122C28.7892 20.6008 28.7454 20.681 28.6748 20.7391C28.6041 20.7972 28.5065 20.8331 28.3986 20.8331C28.2908 20.8331 28.1931 20.7972 28.1225 20.7391C28.0518 20.681 28.0081 20.6008 28.0081 20.5122C28.0081 20.4236 28.0518 20.3434 28.1225 20.2853C28.1931 20.2273 28.2908 20.1913 28.3986 20.1913Z" fill="#363636"/>
<path fill-rule="evenodd" clip-rule="evenodd" d="M28.3986 20.2834C28.4756 20.2834 28.5452 20.3091 28.5956 20.3505C28.646 20.3919 28.6772 20.4491 28.6772 20.5123C28.6772 20.5755 28.646 20.6327 28.5956 20.6741C28.5452 20.7155 28.4756 20.7412 28.3986 20.7412C28.3217 20.7412 28.2521 20.7155 28.2017 20.6741C28.1513 20.6327 28.1201 20.5755 28.1201 20.5123C28.1201 20.4491 28.1513 20.3919 28.2017 20.3505C28.2521 20.3091 28.3217 20.2834 28.3986 20.2834Z" fill="#616161"/>
<path fill-rule="evenodd" clip-rule="evenodd" d="M28.4704 20.5125C28.4704 20.4962 28.4624 20.4814 28.4494 20.4708C28.4364 20.4601 28.4184 20.4535 28.3985 20.4535C28.3787 20.4535 28.3607 20.4601 28.3477 20.4708C28.3347 20.4814 28.3267 20.4962 28.3267 20.5125C28.3267 20.5288 28.3347 20.5435 28.3477 20.5542C28.3607 20.5649 28.3787 20.5715 28.3985 20.5715C28.4184 20.5715 28.4364 20.5649 28.4494 20.5542C28.4624 20.5435 28.4704 20.5288 28.4704 20.5125Z" fill="#353535"/>
<path fill-rule="evenodd" clip-rule="evenodd" d="M28.399 20.2403C28.4194 20.2403 28.4394 20.2421 28.4589 20.2455C28.4786 20.2489 28.4978 20.2541 28.516 20.2608L28.5063 20.2787L28.516 20.2607C28.5259 20.2644 28.5313 20.2728 28.53 20.2812C28.5273 20.3216 28.5131 20.3579 28.4918 20.3843C28.4682 20.4135 28.4357 20.4314 28.399 20.4314C28.3623 20.4314 28.3297 20.4135 28.3061 20.3843C28.2845 20.3575 28.2703 20.3206 28.2679 20.2796H28.2678C28.2673 20.2707 28.2741 20.2629 28.2839 20.2601C28.3015 20.2537 28.32 20.2488 28.3391 20.2455C28.3585 20.2421 28.3786 20.2403 28.399 20.2403ZM28.7061 20.4178C28.7138 20.4323 28.7198 20.4475 28.7238 20.4632C28.728 20.4792 28.7302 20.4956 28.7302 20.5124C28.7302 20.5292 28.728 20.5456 28.7238 20.5616C28.7196 20.5778 28.7134 20.5935 28.7052 20.6085L28.6835 20.6005L28.7053 20.6085C28.7009 20.6167 28.6906 20.6211 28.6804 20.62C28.6312 20.6178 28.5871 20.6062 28.5549 20.5887C28.5193 20.5693 28.4975 20.5426 28.4975 20.5124C28.4975 20.4822 28.5193 20.4555 28.5549 20.4361C28.5875 20.4184 28.6324 20.4067 28.6823 20.4047V20.4046C28.6932 20.4042 28.7027 20.4098 28.7061 20.4178ZM28.0919 20.607C28.0841 20.5924 28.0781 20.5773 28.0741 20.5616C28.07 20.5456 28.0678 20.5292 28.0678 20.5124C28.0678 20.4956 28.07 20.4792 28.0741 20.4632C28.0783 20.4469 28.0846 20.4312 28.0927 20.4163L28.1145 20.4243L28.0927 20.4162C28.0971 20.4081 28.1074 20.4037 28.1176 20.4048C28.1667 20.407 28.2109 20.4186 28.243 20.4361C28.2787 20.4555 28.3004 20.4822 28.3004 20.5124C28.3004 20.5426 28.2787 20.5693 28.243 20.5887C28.2104 20.6064 28.1655 20.6181 28.1157 20.6201V20.6202C28.1048 20.6206 28.0953 20.615 28.0919 20.607ZM28.399 20.4536C28.4187 20.4536 28.4366 20.4602 28.4496 20.4708C28.4625 20.4814 28.4706 20.4962 28.4706 20.5124C28.4706 20.5286 28.4625 20.5433 28.4496 20.554C28.4366 20.5646 28.4187 20.5712 28.399 20.5712C28.3792 20.5712 28.3613 20.5646 28.3484 20.554C28.3354 20.5433 28.3274 20.5286 28.3274 20.5124C28.3274 20.4962 28.3354 20.4814 28.3484 20.4708C28.3613 20.4602 28.3792 20.4536 28.399 20.4536ZM28.5141 20.7647C28.4964 20.7711 28.4779 20.776 28.4589 20.7793C28.4394 20.7827 28.4194 20.7845 28.399 20.7845C28.3786 20.7845 28.3585 20.7827 28.3391 20.7793C28.3193 20.7759 28.3002 20.7707 28.282 20.764L28.2917 20.7461L28.282 20.7641C28.2721 20.7604 28.2667 20.752 28.268 20.7436C28.2707 20.7032 28.2848 20.667 28.3061 20.6405C28.3297 20.6112 28.3622 20.5934 28.399 20.5934C28.4357 20.5934 28.4682 20.6112 28.4918 20.6405C28.5134 20.6673 28.5276 20.7042 28.5301 20.7452H28.5301C28.5307 20.7541 28.5238 20.7619 28.5141 20.7647ZM28.6811 20.2806C28.6089 20.2213 28.5092 20.1846 28.399 20.1846C28.2888 20.1846 28.1891 20.2213 28.1168 20.2806C28.0446 20.3399 28 20.4219 28 20.5124C28 20.6029 28.0446 20.6849 28.1168 20.7442C28.1891 20.8035 28.2888 20.8402 28.399 20.8402C28.5092 20.8402 28.6089 20.8035 28.6811 20.7442C28.7533 20.6849 28.798 20.6029 28.798 20.5124C28.798 20.4219 28.7533 20.3399 28.6811 20.2806Z" fill="#DCDCDC"/>
<path d="M29.7005 17.8922H29.0986V18.4902H29.7005V17.8922Z" fill="#959595"/>
<path d="M28.7187 18.6168L29.527 18.6151C29.6061 18.6151 29.6703 18.6678 29.6703 18.7329V20.5217H29.6702C29.6675 20.4586 29.6044 20.4081 29.527 20.4081H29.4892C29.5012 20.4054 29.5139 20.404 29.527 20.404C29.6061 20.404 29.6703 20.4567 29.6703 20.5217V20.5259C29.6703 20.5909 29.6061 20.6436 29.527 20.6436H29.21C29.2182 20.605 29.2224 20.5657 29.2224 20.5259C29.2224 20.4861 29.2182 20.4467 29.21 20.4081C29.2095 20.4057 29.209 20.4033 29.2084 20.4008L29.2078 20.3981L29.2067 20.3933L29.2059 20.3901L29.2048 20.3858L29.2041 20.3828L29.2039 20.3824L29.2023 20.376L29.2013 20.3727L29.2001 20.3684L29.1993 20.3656L29.1977 20.3604L29.1971 20.3583L29.195 20.3517L29.1948 20.351L29.1947 20.3507C29.194 20.3483 29.1932 20.3459 29.1924 20.3435L29.1915 20.3409L29.19 20.3367L29.1888 20.3331L29.1871 20.3287L29.1863 20.3264C29.1854 20.324 29.1845 20.3217 29.1837 20.3194L29.1835 20.3189L29.1828 20.3172L29.1808 20.3122L29.1796 20.3092L29.1779 20.305L29.1765 20.3017L29.1748 20.2977L29.1736 20.2947L29.1705 20.288L29.1695 20.2858L29.1673 20.281L29.1659 20.2779L29.1639 20.2738L29.1626 20.2712L29.1593 20.2644L29.1591 20.2641L29.159 20.2638C29.1579 20.2617 29.1568 20.2595 29.1557 20.2573L29.1545 20.2551L29.1518 20.25L29.1506 20.2479L29.1478 20.2426L29.1468 20.2409C29.1456 20.2387 29.1443 20.2364 29.143 20.2341L29.142 20.2324L29.1389 20.2272L29.1375 20.2249L29.1348 20.2203L29.1334 20.218C29.1322 20.2161 29.131 20.2141 29.1298 20.2123L29.1292 20.2113L29.1292 20.2113L29.1286 20.2103L29.125 20.2047L29.1235 20.2024L29.1205 20.1979L29.119 20.1955L29.1156 20.1907L29.1144 20.1888C29.1129 20.1867 29.1115 20.1846 29.1099 20.1825L29.1083 20.1802L29.1053 20.1761L29.1035 20.1735L29.0999 20.1687L29.0987 20.1671C29.0973 20.1653 29.0959 20.1634 29.0945 20.1616L29.0938 20.1607L29.0936 20.1604C29.0921 20.1584 29.0905 20.1563 29.0889 20.1543L29.0868 20.1517L29.0839 20.1481L29.0817 20.1454L29.0773 20.1401L29.0769 20.1395C29.0751 20.1374 29.0733 20.1353 29.0715 20.1332L29.0712 20.1328L29.0699 20.1313L29.0661 20.1269L29.0639 20.1244L29.0604 20.1205L29.0586 20.1185L29.0541 20.1136L29.053 20.1124L29.0527 20.112C29.0508 20.1101 29.049 20.1081 29.0472 20.1062L29.0457 20.1047L29.0415 20.1002L29.0395 20.0982L29.0348 20.0934L29.0337 20.0923C29.0317 20.0903 29.0297 20.0883 29.0277 20.0863L29.0274 20.0861L29.0272 20.0859C29.0253 20.084 29.0233 20.0821 29.0213 20.0802L29.0196 20.0786L29.0151 20.0744L29.0133 20.0726L29.0078 20.0677L29.0069 20.0668C29.0048 20.0649 29.0027 20.063 29.0005 20.0611L28.999 20.0598L28.9939 20.0553L28.9921 20.0537L28.9873 20.0496L28.9851 20.0478C28.9829 20.046 28.9808 20.0442 28.9786 20.0424C28.8221 19.9138 28.6115 19.8421 28.3902 19.8421C28.1688 19.8421 27.9582 19.9138 27.8017 20.0424C27.7995 20.0442 27.7974 20.0459 27.7953 20.0478L27.793 20.0496L27.7882 20.0537L27.7864 20.0553L27.7813 20.0598L27.7798 20.0611C27.7777 20.063 27.7755 20.0649 27.7734 20.0668L27.7725 20.0677L27.7671 20.0726L27.7652 20.0744L27.7607 20.0786L27.759 20.0802C27.757 20.0821 27.755 20.084 27.7531 20.0859L27.7529 20.0861L27.7527 20.0863C27.7507 20.0883 27.7486 20.0903 27.7467 20.0923L27.7455 20.0934L27.7408 20.0982L27.7389 20.1002L27.7346 20.1047L27.7332 20.1062C27.7313 20.1081 27.7295 20.1101 27.7276 20.112L27.7273 20.1124L27.7262 20.1136C27.7247 20.1152 27.7232 20.1168 27.7218 20.1185L27.72 20.1205L27.7164 20.1244L27.7143 20.1269L27.7104 20.1313L27.7092 20.1328L27.7088 20.1332C27.707 20.1353 27.7052 20.1374 27.7034 20.1395L27.703 20.1401L27.6986 20.1454L27.6964 20.1481L27.6931 20.1522L27.6917 20.1541C27.69 20.1562 27.6883 20.1583 27.6867 20.1604L27.6865 20.1606L27.6858 20.1616C27.6844 20.1634 27.683 20.1652 27.6816 20.1671L27.6804 20.1687L27.6768 20.1736L27.6751 20.1759L27.6719 20.1804L27.6704 20.1825C27.6689 20.1846 27.6674 20.1867 27.6659 20.1888L27.6647 20.1907L27.6614 20.1955L27.6598 20.1979L27.6568 20.2024L27.6553 20.2047L27.6511 20.2113C27.6497 20.2135 27.6483 20.2157 27.6469 20.218L27.6456 20.2201L27.6427 20.2251L27.6414 20.2271L27.6381 20.2328L27.6375 20.2339C27.6361 20.2363 27.6348 20.2386 27.6335 20.2409L27.6328 20.2422C27.6317 20.2442 27.6306 20.2462 27.6295 20.2482L27.6287 20.2497L27.6259 20.2551L27.6246 20.2573C27.6235 20.2595 27.6224 20.2617 27.6214 20.2638L27.6212 20.2641L27.621 20.2644C27.6199 20.2667 27.6188 20.2689 27.6176 20.2712L27.6166 20.2733L27.6142 20.2783L27.613 20.281L27.6109 20.2855L27.6098 20.288C27.6087 20.2904 27.6077 20.2928 27.6066 20.2951L27.6064 20.2957C27.6054 20.2979 27.6045 20.3001 27.6036 20.3023L27.6026 20.3046L27.6006 20.3094L27.5996 20.3118L27.5974 20.3174L27.5968 20.3189L27.5966 20.3194C27.5958 20.3217 27.5949 20.324 27.594 20.3263L27.5933 20.3282L27.5913 20.3337L27.5905 20.3361L27.5887 20.3413L27.5879 20.3436C27.5872 20.3459 27.5864 20.3483 27.5856 20.3507L27.5855 20.351L27.5851 20.3522L27.5832 20.3583L27.5826 20.3605L27.5811 20.3654L27.5802 20.3685L27.5787 20.3736L27.5783 20.3753L27.5781 20.376C27.5775 20.3781 27.5769 20.3803 27.5764 20.3824L27.5763 20.3828L27.5756 20.3854L27.5743 20.3905L27.5737 20.3932L27.5725 20.3984L27.572 20.4005C27.5714 20.403 27.5709 20.4056 27.5703 20.4081C27.5621 20.4467 27.558 20.4861 27.558 20.5259C27.558 20.5657 27.5621 20.605 27.5703 20.6436H27.1022C26.9187 20.6436 26.9639 20.49 26.9788 20.4001L27.0853 19.7538C27.1371 19.4395 27.3394 19.1547 27.6236 18.949C27.9032 18.7459 28.2403 18.6018 28.6394 18.6181C28.6653 18.6191 28.693 18.6171 28.7187 18.6168Z" fill="#ABABAB"/>
<path d="M33.1137 20.6432L33.9001 20.6432V20.6436C33.9792 20.6436 34.0434 20.5909 34.0434 20.5259V17.7243C34.0434 17.6593 33.9792 17.6066 33.9001 17.6066H29.8084C29.7292 17.6066 29.665 17.6593 29.665 17.7243V20.5259C29.665 20.5909 29.7292 20.6436 29.8084 20.6436C29.8126 20.6436 29.8168 20.6435 29.821 20.6432L31.4737 20.6432C31.4656 20.6047 31.4615 20.5655 31.4615 20.5259C31.4615 20.3449 31.5482 20.1715 31.7053 20.0424C31.8617 19.9139 32.0724 19.8421 32.2937 19.8421C32.515 19.8421 32.7257 19.9139 32.8821 20.0424C33.0705 20.1972 33.1594 20.4265 33.1137 20.6432Z" fill="#A0A0A0"/>
<path d="M34.0437 18.984V18.5177L31.9268 19.5474L34.0437 18.984Z" fill="#5F5F5F"/>
<path d="M34.0435 18.3926V17.7243C34.0435 17.6593 33.9794 17.6066 33.9002 17.6066H33.8771L30.1079 19.4401L34.0435 18.3926Z" fill="#5F5F5F"/>
<path d="M29.3837 19.3995V18.8506H28.6595C28.3485 18.8506 28.0474 18.9559 27.8129 19.1257C27.7038 19.2046 27.6093 19.2973 27.5352 19.3995H29.3837Z" fill="#BFBFBF"/>
<path d="M29.3485 19.3707V18.8791H28.6592C28.5111 18.8791 28.3653 18.9037 28.2283 18.9482C28.0855 18.9946 27.9521 19.0627 27.8356 19.147C27.7817 19.1859 27.7319 19.228 27.6867 19.2725C27.6549 19.3038 27.6251 19.3366 27.5977 19.3707L29.3485 19.3707ZM29.4183 18.8504V19.3986V19.3993C29.4183 19.4151 29.4026 19.428 29.3834 19.428H27.5348V19.4279C27.5288 19.4279 27.5226 19.4267 27.517 19.4239C27.5005 19.4158 27.4951 19.3982 27.5049 19.3847L27.5348 19.3993L27.505 19.3847C27.5428 19.3326 27.5858 19.2828 27.6333 19.2361C27.6815 19.1885 27.7339 19.1443 27.7896 19.104C27.912 19.0154 28.0524 18.9438 28.2027 18.895C28.3478 18.8479 28.5022 18.8218 28.6592 18.8218H29.3825H29.3834C29.4026 18.8218 29.4183 18.8346 29.4183 18.8504Z" fill="#8C8D8D"/>
<path d="M33.1133 20.6433H33.8998H34.1262V20.4078H33.8998H33.1133C33.1215 20.4464 33.1256 20.4858 33.1256 20.5256C33.1256 20.5654 33.1215 20.6047 33.1133 20.6433Z" fill="#9D9D9D"/>
<path d="M26.9661 20.4078C26.8869 20.4078 26.8228 20.4605 26.8228 20.5256C26.8228 20.5906 26.8869 20.6433 26.9661 20.6433H27.5705C27.5624 20.6047 27.5582 20.5654 27.5582 20.5256C27.5582 20.4858 27.5624 20.4464 27.5705 20.4078H26.9661Z" fill="#9D9D9D"/>
<path d="M31.4193 20.6506C31.4234 20.6706 31.4464 20.6841 31.4708 20.6808C31.4951 20.6774 31.5115 20.6585 31.5075 20.6385C31.5038 20.6208 31.501 20.6025 31.4991 20.5838C31.4972 20.5657 31.4963 20.5473 31.4963 20.5287C31.4963 20.1671 31.8531 19.8739 32.2933 19.8739C32.7335 19.8739 33.0903 20.1671 33.0903 20.5287C33.0903 20.5473 33.0894 20.5657 33.0875 20.5839C33.0856 20.6025 33.0828 20.6208 33.0791 20.6385C33.0751 20.6585 33.0915 20.6774 33.1159 20.6808C33.1402 20.6841 33.1632 20.6706 33.1673 20.6506C33.1715 20.6301 33.1747 20.6098 33.1767 20.5899C33.1788 20.5694 33.1799 20.549 33.1799 20.5287C33.1799 20.1264 32.783 19.8003 32.2933 19.8003C31.8037 19.8003 31.4067 20.1264 31.4067 20.5287C31.4067 20.549 31.4078 20.5694 31.4099 20.5899C31.4119 20.6098 31.4151 20.6301 31.4193 20.6506Z" fill="#868686"/>
<path d="M27.5248 20.6506C27.5289 20.6706 27.5519 20.6841 27.5762 20.6808C27.6006 20.6774 27.617 20.6585 27.613 20.6385C27.6093 20.6208 27.6065 20.6025 27.6046 20.5838C27.6027 20.5657 27.6018 20.5473 27.6018 20.5287C27.6018 20.1671 27.9586 19.8739 28.3988 19.8739C28.839 19.8739 29.1958 20.1671 29.1958 20.5287C29.1958 20.5473 29.1949 20.5657 29.193 20.5839C29.1911 20.6025 29.1883 20.6208 29.1846 20.6385C29.1806 20.6585 29.197 20.6774 29.2214 20.6808C29.2457 20.6841 29.2687 20.6706 29.2728 20.6506C29.277 20.6301 29.2802 20.6098 29.2822 20.5899C29.2844 20.5694 29.2854 20.549 29.2854 20.5287C29.2854 20.1264 28.8884 19.8003 28.3988 19.8003C27.9091 19.8003 27.5122 20.1264 27.5122 20.5287C27.5122 20.549 27.5133 20.5694 27.5154 20.5899C27.5174 20.6098 27.5206 20.6301 27.5248 20.6506Z" fill="#868686"/>
</svg>
