<svg width="51" height="42" viewBox="0 0 51 42" fill="none" xmlns="http://www.w3.org/2000/svg">
<path d="M5.73555 15.2108C5.71372 15.2108 5.69074 15.2098 5.66892 15.208C5.35412 15.178 5.1278 14.9457 5.16456 14.6891C6.33756 6.43086 14.9231 0.203247 25.1355 0.203247H26.2844C36.4818 0.203247 45.0662 6.4215 46.2518 14.6666C46.2886 14.9232 46.0634 15.1555 45.7486 15.1864C45.443 15.2192 45.1489 15.0328 45.111 14.7762C43.9931 7.00221 35.8993 1.13987 26.2844 1.13987H25.1355C15.5067 1.13987 7.41176 7.01157 6.30539 14.7968C6.27208 15.0356 6.02392 15.2108 5.73555 15.2108Z" fill="#353535"/>
<path d="M45.262 13.3545C45.0552 13.3545 44.8565 13.2627 44.7554 13.1054C41.4512 8.03636 35.0347 4.88649 28.0082 4.88649H23.4127C16.3862 4.88649 9.96969 8.03636 6.66667 13.1054C6.52996 13.3133 6.22665 13.407 5.95667 13.3236C5.68668 13.2402 5.53388 13.0061 5.60052 12.7766C7.77074 5.37447 15.8037 0.203369 25.136 0.203369H26.2849C35.6172 0.203369 43.6502 5.37448 45.8204 12.7776C45.8882 13.007 45.7354 13.2412 45.4642 13.3245C45.3976 13.3452 45.3298 13.3545 45.262 13.3545ZM23.4127 3.94987H28.0082C33.9054 3.94987 39.3982 6.04135 43.1688 9.57898C40.0013 4.47532 33.5619 1.13999 26.2849 1.13999H25.136C17.859 1.13999 11.4196 4.47532 8.25212 9.57898C12.0227 6.04135 17.5155 3.94987 23.4127 3.94987Z" fill="#353535"/>
<path d="M4.52506 29.1349C4.48025 29.1349 4.43545 29.1311 4.38949 29.1218C2.06187 28.6647 0.435059 26.9788 0.435059 25.024V21.2775C0.435059 19.3705 2.01132 17.6959 4.26886 17.2051C4.57331 17.1376 4.8904 17.2866 4.97197 17.5366C5.05354 17.7867 4.87202 18.0434 4.56527 18.1099C2.80979 18.492 1.58394 19.7948 1.58394 21.2775V25.024C1.58394 26.5451 2.84885 27.8554 4.65833 28.2104C4.96738 28.2713 5.15694 28.5242 5.08226 28.7761C5.01908 28.9906 4.78356 29.1349 4.52506 29.1349Z" fill="#353535"/>
<path d="M9.62534 31.1122H8.47646C7.20925 31.1122 6.17871 30.272 6.17871 29.2389V17.0628C6.17871 16.0297 7.20925 15.1896 8.47646 15.1896H9.62534C10.8926 15.1896 11.9231 16.0297 11.9231 17.0628V29.2389C11.9231 30.272 10.8926 31.1122 9.62534 31.1122ZM8.47646 16.1262C7.84343 16.1262 7.32759 16.5467 7.32759 17.0628V29.2389C7.32759 29.755 7.84343 30.1756 8.47646 30.1756H9.62534C10.2584 30.1756 10.7742 29.755 10.7742 29.2389V17.0628C10.7742 16.5467 10.2584 16.1262 9.62534 16.1262H8.47646Z" fill="#353535"/>
<path d="M21.1147 39.5416C21.1147 39.8001 21.3721 40.0099 21.6892 40.0099V39.0732C21.3721 39.0732 21.1147 39.283 21.1147 39.5416Z" fill="#353535"/>
<path d="M44.5004 31.6507C44.2155 31.5393 43.8708 31.6386 43.7341 31.8718C41.3364 35.9658 36.3686 38.7026 30.8701 39.0379C30.8701 39.051 30.8793 39.0604 30.8793 39.0735V39.9764C36.8144 39.6364 42.1843 36.6907 44.7704 32.2755C44.9082 32.0422 44.7876 31.7622 44.5004 31.6507Z" fill="#353535"/>
<path d="M29.7318 41.4148H22.8385C21.8884 41.4148 21.1152 40.7845 21.1152 40.0099V39.0733C21.1152 38.2987 21.8884 37.6683 22.8385 37.6683H29.7318C30.6819 37.6683 31.4551 38.2987 31.4551 39.0733V40.0099C31.4551 40.7845 30.6819 41.4148 29.7318 41.4148ZM22.8385 38.605C22.5215 38.605 22.2641 38.8148 22.2641 39.0733V40.0099C22.2641 40.2684 22.5215 40.4782 22.8385 40.4782H29.7318C30.0489 40.4782 30.3062 40.2684 30.3062 40.0099V39.0733C30.3062 38.8148 30.0489 38.605 29.7318 38.605H22.8385Z" fill="#353535"/>
<path d="M46.9055 29.133C46.647 29.133 46.4115 28.9897 46.3483 28.7752C46.2736 28.5233 46.4632 28.2704 46.7711 28.2095C48.576 27.8517 49.8374 26.5414 49.8374 25.0241V21.2776C49.8374 19.7977 48.615 18.4958 46.8641 18.1118C46.5574 18.0443 46.3759 17.7877 46.4586 17.5376C46.5402 17.2866 46.8584 17.1386 47.1629 17.207C49.4135 17.7015 50.9863 19.3753 50.9863 21.2776V25.0241C50.9863 26.9751 49.3641 28.6591 47.0422 29.1199C46.9963 29.1284 46.9503 29.133 46.9055 29.133Z" fill="#353535"/>
<path d="M42.9432 31.1121H41.7943C40.5271 31.1121 39.4966 30.2719 39.4966 29.2388V17.0627C39.4966 16.0296 40.5271 15.1895 41.7943 15.1895H42.9432C44.2104 15.1895 45.241 16.0296 45.241 17.0627V29.2388C45.241 30.2719 44.2104 31.1121 42.9432 31.1121ZM41.7943 16.1261C41.1613 16.1261 40.6455 16.5466 40.6455 17.0627V29.2388C40.6455 29.7549 41.1613 30.1754 41.7943 30.1754H42.9432C43.5762 30.1754 44.0921 29.7549 44.0921 29.2388V17.0627C44.0921 16.5466 43.5762 16.1261 42.9432 16.1261H41.7943Z" fill="#353535"/>
</svg>
