<svg width="19" height="18" viewBox="0 0 19 18" fill="none" xmlns="http://www.w3.org/2000/svg">
<path fill-rule="evenodd" clip-rule="evenodd" d="M14.2246 0.521606H5.22461C2.74983 0.521606 0.724609 2.38053 0.724609 4.65393V12.9186C0.724609 15.1912 2.74983 17.0509 5.22461 17.0509H14.2246C16.6994 17.0509 18.7246 15.1912 18.7246 12.9186V4.65393C18.7246 2.38053 16.6994 0.521606 14.2246 0.521606ZM9.72461 12.2297C7.65326 12.2297 5.97453 10.6875 5.97453 8.78624C5.97453 6.88413 7.65326 5.34257 9.72461 5.34257C11.7951 5.34257 13.4747 6.88413 13.4747 8.78624C13.4747 10.6875 11.7951 12.2297 9.72461 12.2297ZM13.4747 4.30949C13.4747 4.87996 13.9778 5.34257 14.5997 5.34257C15.2216 5.34257 15.7247 4.87996 15.7247 4.30949C15.7247 3.73902 15.2216 3.27641 14.5997 3.27641C13.9778 3.27641 13.4747 3.73902 13.4747 4.30949Z" fill="white"/>
</svg>
