<svg width="87" height="47" viewBox="0 0 87 47" fill="none" xmlns="http://www.w3.org/2000/svg">
<path d="M15.8074 33.6511C13.4821 33.6511 11.7008 33.0538 10.4634 31.8591C9.24742 30.6644 8.63942 28.9258 8.63942 26.6431V16.2111C8.63942 15.5284 8.56475 15.0698 8.41542 14.8351C8.28742 14.6004 7.98875 14.4831 7.51942 14.4831C7.32742 14.4831 7.10342 14.4938 6.84742 14.5151C6.59142 14.5364 6.46342 14.5471 6.46342 14.5471L6.39942 14.4191L6.62342 12.7231C6.62342 12.7231 6.85808 12.7338 7.32742 12.7551C7.81808 12.7764 8.37275 12.7978 8.99142 12.8191C9.61008 12.8191 10.1754 12.8191 10.6874 12.8191C11.0074 12.8191 11.3701 12.8084 11.7754 12.7871C12.2021 12.7444 12.5968 12.7124 12.9594 12.6911C13.3221 12.6698 13.6208 12.6484 13.8554 12.6271C14.1114 12.5844 14.2394 12.5631 14.2394 12.5631L14.0474 14.3231C13.3221 14.4084 12.8208 14.5791 12.5434 14.8351C12.2874 15.0698 12.1488 15.4858 12.1274 16.0831L11.8714 25.4591C11.8714 27.3578 12.2768 28.8191 13.0874 29.8431C13.9194 30.8671 15.1034 31.3791 16.6394 31.3791C18.1754 31.3791 19.3488 30.9631 20.1594 30.1311C20.9701 29.2991 21.3754 28.0831 21.3754 26.4831C21.3754 26.0564 21.3648 25.4378 21.3434 24.6271C21.3434 23.7951 21.3328 22.8991 21.3114 21.9391C21.2901 20.9791 21.2688 20.0724 21.2474 19.2191C21.2474 18.3444 21.2368 17.6298 21.2154 17.0751C21.2154 16.4991 21.2154 16.2111 21.2154 16.2111C21.1728 15.4858 21.0874 15.0164 20.9594 14.8031C20.8314 14.5898 20.5434 14.4831 20.0954 14.4831C19.9034 14.4831 19.6474 14.4938 19.3274 14.5151C19.0074 14.5364 18.8474 14.5471 18.8474 14.5471L18.7834 14.4191L19.0394 12.7231C19.0394 12.7231 19.1674 12.7338 19.4234 12.7551C19.6794 12.7551 19.9994 12.7658 20.3834 12.7871C20.7888 12.7871 21.1941 12.7978 21.5994 12.8191C22.0261 12.8191 22.3888 12.8191 22.6874 12.8191C23.1994 12.8191 23.7114 12.8084 24.2234 12.7871C24.7568 12.7444 25.2048 12.7018 25.5674 12.6591C25.9301 12.5951 26.1114 12.5631 26.1114 12.5631L25.9514 14.2911C25.0981 14.4404 24.5328 14.6218 24.2554 14.8351C23.9994 15.0271 23.8714 15.4324 23.8714 16.0511V26.4511C23.8714 28.7551 23.1674 30.5364 21.7594 31.7951C20.3728 33.0324 18.3888 33.6511 15.8074 33.6511ZM37.1914 33.5551L37.0634 33.3311L37.1914 31.7951C37.9168 31.7098 38.4714 31.6351 38.8554 31.5711C39.2394 31.4858 39.5061 31.3684 39.6554 31.2191C39.8048 31.0698 39.8794 30.8564 39.8794 30.5791C39.8794 30.4084 39.8581 30.2164 39.8154 30.0031C39.7941 29.7684 39.7408 29.5231 39.6554 29.2671L38.7594 26.2271C38.3754 26.2058 37.8528 26.1951 37.1914 26.1951C36.5514 26.1951 36.0288 26.1951 35.6234 26.1951C35.0474 26.1951 34.4394 26.2271 33.7994 26.2911C33.1808 26.3338 32.6901 26.3764 32.3274 26.4191L31.3034 29.3631C31.1328 29.8751 31.0474 30.2484 31.0474 30.4831C31.0474 30.9098 31.1861 31.2191 31.4634 31.4111C31.7408 31.5818 32.1781 31.6671 32.7754 31.6671H34.4074L34.5034 31.8271L34.3114 33.4591C34.3114 33.4591 34.0768 33.4378 33.6074 33.3951C33.1381 33.3738 32.5514 33.3418 31.8474 33.2991C31.1434 33.2778 30.4501 33.2671 29.7674 33.2671C29.2128 33.2671 28.6474 33.2671 28.0714 33.2671C27.5168 33.2884 27.0474 33.3098 26.6634 33.3311C26.2794 33.3524 26.0874 33.3631 26.0874 33.3631L26.3434 31.6031C26.8981 31.5178 27.3461 31.3151 27.6874 30.9951C28.0288 30.6538 28.3488 30.0778 28.6474 29.2671L34.6634 12.9791L37.9914 12.4351L38.2794 12.5311C38.2794 12.5311 38.3541 12.7978 38.5034 13.3311C38.6528 13.8431 38.8448 14.5578 39.0794 15.4751C39.3354 16.3711 39.6234 17.3951 39.9434 18.5471C40.2634 19.6991 40.6048 20.9044 40.9674 22.1631C41.3301 23.4218 41.6928 24.6804 42.0554 25.9391C42.4394 27.1764 42.8021 28.3284 43.1434 29.3951C43.3994 30.1631 43.7301 30.7071 44.1354 31.0271C44.5408 31.3471 45.1594 31.5498 45.9914 31.6351L46.0874 31.7951L45.8634 33.3631C45.8634 33.3631 45.6394 33.3524 45.1914 33.3311C44.7648 33.3098 44.2634 33.2884 43.6874 33.2671C43.1328 33.2671 42.6421 33.2671 42.2154 33.2671C41.3834 33.2671 40.5728 33.2884 39.7834 33.3311C39.0154 33.3951 38.3861 33.4484 37.8954 33.4911C37.4261 33.5338 37.1914 33.5551 37.1914 33.5551ZM32.9674 24.3391H35.5594C35.9434 24.3391 36.4021 24.3284 36.9354 24.3071C37.4688 24.2644 37.9061 24.2324 38.2474 24.2111L36.0394 16.4031H35.7194L32.9674 24.3391Z" fill="#187900"/>
<path d="M38.6354 44.8422L38.7954 43.7822C39.4087 43.7289 39.8554 43.6489 40.1354 43.5422C40.4154 43.4222 40.5954 43.2089 40.6754 42.9022C40.7554 42.5955 40.7954 42.1222 40.7954 41.4822V33.0822C40.1154 33.0955 39.5821 33.1289 39.1954 33.1822C38.8087 33.2355 38.5154 33.3422 38.3154 33.5022C38.1287 33.6622 37.9887 33.9155 37.8954 34.2622C37.8154 34.5955 37.7421 35.0555 37.6754 35.6422L36.4154 35.7422C36.4687 35.3155 36.5087 34.8755 36.5354 34.4222C36.5754 33.9689 36.6087 33.5222 36.6354 33.0822C36.6621 32.6422 36.6821 32.2489 36.6954 31.9022L36.8954 31.7222L38.6954 31.9422H44.9154L46.7554 31.7222L46.9554 31.9022C46.9687 32.2755 46.9821 32.6889 46.9954 33.1422C47.0221 33.5822 47.0554 34.0222 47.0954 34.4622C47.1354 34.8889 47.1754 35.2822 47.2154 35.6422L45.9554 35.7422C45.8754 35.1289 45.7887 34.6489 45.6954 34.3022C45.6021 33.9555 45.4621 33.7022 45.2754 33.5422C45.1021 33.3689 44.8354 33.2555 44.4754 33.2022C44.1154 33.1489 43.6221 33.1089 42.9954 33.0822C42.9554 33.5089 42.9154 34.0822 42.8754 34.8022C42.8487 35.5222 42.8221 36.3155 42.7954 37.1822C42.7821 38.0355 42.7621 38.9089 42.7354 39.8022C42.7221 40.6955 42.7154 41.5289 42.7154 42.3022C42.7154 42.7955 42.8021 43.1489 42.9754 43.3622C43.1487 43.5622 43.4354 43.6622 43.8354 43.6622C44.1954 43.6622 44.5554 43.6422 44.9154 43.6022L44.9754 43.7022L44.7954 44.8222C44.4887 44.7955 44.1287 44.7755 43.7154 44.7622C43.3154 44.7622 42.9287 44.7555 42.5554 44.7422C42.1821 44.7422 41.8754 44.7422 41.6354 44.7422C41.4087 44.7422 41.1221 44.7422 40.7754 44.7422C40.4287 44.7555 40.0621 44.7689 39.6754 44.7822C39.3021 44.8089 38.9554 44.8289 38.6354 44.8422ZM47.9795 43.8422C48.3795 43.8022 48.6461 43.6822 48.7795 43.4822C48.9128 43.2689 48.9795 42.8755 48.9795 42.3022V38.1022C48.9795 37.6489 48.9195 37.3355 48.7995 37.1622C48.6795 36.9755 48.4728 36.8822 48.1795 36.8822C48.0861 36.8822 47.9928 36.8955 47.8995 36.9222C47.8195 36.9355 47.7795 36.9422 47.7795 36.9422L47.6795 36.8022L47.7595 36.0022C48.2528 35.9089 48.7328 35.8155 49.1995 35.7222C49.6795 35.6289 50.0795 35.5489 50.3995 35.4822C50.7195 35.4022 50.8795 35.3622 50.8795 35.3622L51.0395 35.5022C51.0395 35.5022 51.0195 35.6089 50.9795 35.8222C50.9528 36.0222 50.9261 36.2755 50.8995 36.5822C50.8728 36.8755 50.8595 37.1755 50.8595 37.4822L50.9395 37.5422C51.3661 36.9289 51.8328 36.4355 52.3395 36.0622C52.8595 35.6755 53.3328 35.4822 53.7595 35.4822C53.9728 35.4822 54.1328 35.4955 54.2395 35.5222C54.3595 35.5489 54.4195 35.5622 54.4195 35.5622L54.4795 35.6822C54.4795 35.6822 54.4661 35.7822 54.4395 35.9822C54.4128 36.1689 54.3728 36.4222 54.3195 36.7422C54.2795 37.0622 54.2395 37.4155 54.1995 37.8022C54.1728 38.1755 54.1461 38.5355 54.1195 38.8822L53.1195 38.9422C53.1195 38.3555 53.0861 37.9689 53.0195 37.7822C52.9528 37.5955 52.7995 37.5022 52.5595 37.5022C52.3061 37.5022 52.0328 37.6022 51.7395 37.8022C51.4595 38.0022 51.1928 38.2822 50.9395 38.6422C50.9395 38.6422 50.9328 38.7622 50.9195 39.0022C50.9061 39.2422 50.8928 39.5489 50.8795 39.9222C50.8661 40.2822 50.8461 40.6555 50.8195 41.0422C50.8061 41.4289 50.7928 41.7689 50.7795 42.0622C50.7661 42.3555 50.7595 42.5422 50.7595 42.6222C50.7595 43.0222 50.8195 43.3022 50.9395 43.4622C51.0728 43.6089 51.3061 43.6822 51.6395 43.6822C51.8128 43.6822 52.0128 43.6755 52.2395 43.6622C52.4661 43.6355 52.5795 43.6222 52.5795 43.6222L52.6195 43.7222L52.4195 44.8022C52.4195 44.8022 52.3395 44.7955 52.1795 44.7822C52.0328 44.7822 51.8395 44.7755 51.5995 44.7622C51.3595 44.7622 51.1061 44.7555 50.8395 44.7422C50.5861 44.7422 50.3528 44.7422 50.1395 44.7422C49.7395 44.7422 49.3661 44.7489 49.0195 44.7622C48.6728 44.7755 48.3928 44.7889 48.1795 44.8022C47.9661 44.8155 47.8595 44.8222 47.8595 44.8222L47.9795 43.8422ZM62.2138 44.9822C61.6538 44.9822 61.2138 44.8489 60.8938 44.5822C60.5738 44.3155 60.3872 43.9222 60.3338 43.4022L60.2138 43.3622C59.9205 43.6555 59.6272 43.9222 59.3338 44.1622C59.0538 44.3889 58.8005 44.5689 58.5738 44.7022C58.3472 44.8355 58.1605 44.9022 58.0138 44.9022C57.5072 44.9022 57.0538 44.7889 56.6538 44.5622C56.2538 44.3222 55.9405 44.0022 55.7138 43.6022C55.4872 43.2022 55.3738 42.7489 55.3738 42.2422C55.3738 41.8422 55.4738 41.4955 55.6738 41.2022C55.8738 40.8955 56.1405 40.6955 56.4738 40.6022L60.2938 39.6222L60.3138 38.9222C60.3138 38.3089 60.1605 37.8289 59.8538 37.4822C59.5605 37.1222 59.1338 36.9422 58.5738 36.9422C58.2005 36.9422 57.8005 37.0355 57.3738 37.2222C56.9605 37.3955 56.5672 37.6289 56.1938 37.9222L56.0738 37.8422L55.7738 36.8422C56.1472 36.6289 56.5605 36.4089 57.0138 36.1822C57.4672 35.9555 57.8938 35.7689 58.2938 35.6222C58.7072 35.4622 59.0205 35.3822 59.2338 35.3822C59.9005 35.3822 60.4538 35.4955 60.8938 35.7222C61.3472 35.9355 61.6872 36.2422 61.9138 36.6422C62.1405 37.0289 62.2538 37.4889 62.2538 38.0222C62.2538 38.1955 62.2338 38.4689 62.1938 38.8422C62.1538 39.2155 62.1072 39.6289 62.0538 40.0822C62.0005 40.5355 61.9538 40.9755 61.9138 41.4022C61.8872 41.8155 61.8738 42.1489 61.8738 42.4022C61.8738 42.6822 61.9405 42.9022 62.0738 43.0622C62.2205 43.2089 62.4138 43.2822 62.6538 43.2822C62.8538 43.2822 63.0538 43.2355 63.2538 43.1422C63.4672 43.0355 63.6272 42.9355 63.7338 42.8422L64.0338 43.2222C63.9138 43.4222 63.7538 43.6489 63.5538 43.9022C63.3672 44.1422 63.1538 44.3622 62.9138 44.5622C62.6872 44.7622 62.4538 44.9022 62.2138 44.9822ZM58.5338 43.3022C58.7605 43.3022 59.0272 43.2289 59.3338 43.0822C59.6405 42.9222 59.9205 42.7289 60.1738 42.5022L60.2538 40.5422L57.7938 41.2422C57.4472 41.3489 57.2738 41.6022 57.2738 42.0022C57.2738 42.3622 57.3872 42.6689 57.6138 42.9222C57.8538 43.1755 58.1605 43.3022 58.5338 43.3022ZM67.2345 45.0622C67.2345 45.0622 67.1878 44.9222 67.0945 44.6422C67.0145 44.3489 66.9011 43.9622 66.7545 43.4822C66.6211 43.0022 66.4678 42.4822 66.2945 41.9222C66.1211 41.3622 65.9478 40.7955 65.7745 40.2222C65.6145 39.6489 65.4611 39.1289 65.3145 38.6622C65.1678 38.1955 65.0478 37.8289 64.9545 37.5622C64.7278 36.9089 64.2878 36.5689 63.6345 36.5422L63.5945 36.4622L63.7345 35.6022C63.7345 35.6022 63.8411 35.6022 64.0545 35.6022C64.2811 35.6022 64.5345 35.6089 64.8145 35.6222C65.0945 35.6222 65.3211 35.6222 65.4945 35.6222C65.9211 35.6222 66.3278 35.6089 66.7145 35.5822C67.1011 35.5555 67.4145 35.5355 67.6545 35.5222C67.9078 35.4955 68.0345 35.4822 68.0345 35.4822L68.0745 35.5822L67.9345 36.4422C67.5078 36.4555 67.2211 36.5022 67.0745 36.5822C66.9278 36.6489 66.8545 36.7755 66.8545 36.9622C66.8545 37.0422 66.8878 37.2422 66.9545 37.5622C67.0211 37.8822 67.1145 38.2689 67.2345 38.7222C67.3545 39.1622 67.4745 39.6155 67.5945 40.0822C67.7145 40.5489 67.8345 40.9889 67.9545 41.4022C68.0745 41.8155 68.1678 42.1489 68.2345 42.4022C68.3011 42.6555 68.3345 42.7822 68.3345 42.7822H68.4745C68.9011 41.6622 69.2745 40.7022 69.5945 39.9022C69.9145 39.0889 70.1545 38.4422 70.3145 37.9622C70.4878 37.4689 70.5745 37.1489 70.5745 37.0022C70.5745 36.8289 70.5145 36.7155 70.3945 36.6622C70.2878 36.5955 70.0878 36.5622 69.7945 36.5622H69.1345L69.0545 36.4422L69.1745 35.6022C69.1745 35.6022 69.2878 35.6022 69.5145 35.6022C69.7545 35.6022 70.0411 35.6089 70.3745 35.6222C70.7078 35.6222 71.0345 35.6222 71.3545 35.6222C71.6078 35.6222 71.8611 35.6222 72.1145 35.6222C72.3811 35.6089 72.6011 35.6022 72.7745 35.6022C72.9611 35.6022 73.0545 35.6022 73.0545 35.6022L72.9145 36.5422C72.6211 36.5955 72.4011 36.7022 72.2545 36.8622C72.1211 37.0222 71.9411 37.3689 71.7145 37.9022L69.0145 44.7422L67.2345 45.0622ZM77.603 44.9822C76.723 44.9822 75.9564 44.7955 75.303 44.4222C74.6497 44.0489 74.143 43.5289 73.783 42.8622C73.423 42.1822 73.243 41.3889 73.243 40.4822C73.243 39.7755 73.363 39.1155 73.603 38.5022C73.843 37.8889 74.1697 37.3489 74.583 36.8822C75.0097 36.4155 75.4964 36.0489 76.043 35.7822C76.5897 35.5155 77.1764 35.3822 77.803 35.3822C79.9097 35.3822 80.963 36.4222 80.963 38.5022C80.963 38.6889 80.943 38.8822 80.903 39.0822C80.8764 39.2822 80.8497 39.4422 80.823 39.5622L80.583 39.7822H75.223C75.223 40.8489 75.4364 41.6889 75.863 42.3022C76.2897 42.9155 76.8897 43.2622 77.663 43.3422C78.4497 43.4222 79.3697 43.2222 80.423 42.7422L80.543 42.8022L80.823 43.5622C80.543 43.7622 80.2097 43.9755 79.823 44.2022C79.4497 44.4155 79.063 44.5955 78.663 44.7422C78.2764 44.9022 77.923 44.9822 77.603 44.9822ZM75.263 38.8822L78.483 38.7222C78.6564 38.6955 78.7697 38.6555 78.823 38.6022C78.8897 38.5355 78.923 38.4089 78.923 38.2222C78.923 37.7022 78.7964 37.3089 78.543 37.0422C78.2897 36.7755 77.923 36.6422 77.443 36.6422C76.8697 36.6422 76.383 36.8422 75.983 37.2422C75.5964 37.6289 75.3564 38.1755 75.263 38.8822ZM82.106 44.9622L82.226 43.9422C82.5727 43.8622 82.8193 43.7489 82.966 43.6022C83.1127 43.4422 83.1993 43.2422 83.226 43.0022C83.266 42.7489 83.286 42.4289 83.286 42.0422V32.4822C83.286 32.1355 83.2527 31.8889 83.186 31.7422C83.1327 31.5822 83.0127 31.4822 82.826 31.4422C82.6527 31.4022 82.3927 31.3955 82.046 31.4222L81.966 31.3622L82.066 30.5022C82.6393 30.4355 83.2127 30.3555 83.786 30.2622C84.3727 30.1555 84.9527 30.0355 85.526 29.9022L85.646 30.2222C85.5927 30.3555 85.5327 30.6755 85.466 31.1822C85.4127 31.6755 85.3593 32.3222 85.306 33.1222C85.266 33.9222 85.226 34.8355 85.186 35.8622C85.146 36.8755 85.1127 37.9689 85.086 39.1422C85.0727 40.3022 85.066 41.4955 85.066 42.7222C85.066 43.0822 85.1127 43.3422 85.206 43.5022C85.3127 43.6622 85.486 43.7422 85.726 43.7422L86.406 43.7022L86.446 43.8022L86.266 44.8022C85.986 44.7889 85.6527 44.7755 85.266 44.7622C84.8793 44.7489 84.546 44.7422 84.266 44.7422C84.0127 44.7422 83.686 44.7622 83.286 44.8022C82.8993 44.8422 82.506 44.8955 82.106 44.9622Z" fill="#434343"/>
</svg>
