<svg width="21" height="16" viewBox="0 0 21 16" fill="none" xmlns="http://www.w3.org/2000/svg">
<path d="M18.3576 4.11037C18.3706 4.27107 18.3706 4.43086 18.3706 4.59064C18.3706 9.48056 14.3176 15.1152 6.91061 15.1152C4.62861 15.1152 2.50861 14.5082 0.724609 13.454C1.04861 13.488 1.36061 13.4999 1.69761 13.4999C3.58061 13.4999 5.31361 12.9159 6.69861 11.9195C4.92761 11.8856 3.44361 10.8204 2.93161 9.35475C3.18061 9.38873 3.43061 9.41169 3.69261 9.41169C4.05361 9.41169 4.41661 9.36577 4.75361 9.28588C2.90661 8.94244 1.52361 7.45388 1.52361 5.65586V5.60995C2.06061 5.88452 2.68361 6.05624 3.34361 6.0792C2.25861 5.41619 1.54761 4.28209 1.54761 2.99924C1.54761 2.31235 1.74661 1.6824 2.09561 1.13326C4.07861 3.37666 7.05961 4.84317 10.4016 5.00387C10.3396 4.72839 10.3016 4.4428 10.3016 4.15629C10.3016 2.11767 12.0976 0.457397 14.3296 0.457397C15.4896 0.457397 16.5366 0.903689 17.2726 1.62547C18.1826 1.46477 19.0546 1.1553 19.8286 0.731968C19.5296 1.59057 18.8926 2.31235 18.0576 2.77058C18.8686 2.68977 19.6546 2.48407 20.3766 2.19757C19.8286 2.93036 19.1436 3.58327 18.3576 4.11037Z" fill="white"/>
</svg>
