<svg width="69" height="48" viewBox="0 0 69 48" fill="none" xmlns="http://www.w3.org/2000/svg">
<path d="M3.73261 0.690918H64.2551C66.3123 0.690918 67.9877 2.3555 67.9877 4.39951V43.9701C67.9877 46.0141 66.3123 47.6787 64.2551 47.6787H3.73261C1.67536 47.6909 0 46.0263 0 43.9823V4.39951C0 2.3555 1.67536 0.690918 3.73261 0.690918Z" fill="#B22234"/>
<path d="M0.0246377 4.03223H67.9877C68 4.15462 68.0123 4.27702 68.0123 4.41165V8.01009H0V4.39941C0 4.27702 0.0123188 4.15462 0.0246377 4.03223ZM68 11.3025V15.2682H0V11.3025H68ZM68 18.5728V22.5385H0V18.5728H68ZM68 25.8432V29.8088H0V25.8432H68ZM68 33.1135V37.0791H0V33.1135H68ZM68 40.3838V43.97C68 44.0924 67.9877 44.227 67.9754 44.3494H0.0246377C0.0123188 44.2393 0 44.1046 0 43.9822V40.396H68V40.3838Z" fill="white"/>
<path d="M25.6232 0.690918V26.0024H0V4.39951C0 2.3555 1.67536 0.690918 3.73261 0.690918H25.6232Z" fill="#3C3B6E"/>
<path d="M1.51508 4.19141L2.36508 6.82292L0.123047 5.19505H2.9071L0.652757 6.82292L1.51508 4.19141Z" fill="white"/>
<path d="M1.51508 9.2832L2.36508 11.9147L0.123047 10.2868H2.9071L0.652757 11.9147L1.51508 9.2832Z" fill="white"/>
<path d="M1.51508 14.375L2.36508 17.0065L0.123047 15.3786H2.9071L0.652757 17.0065L1.51508 14.375Z" fill="white"/>
<path d="M1.51508 19.4663L2.36508 22.0978L0.123047 20.47H2.9071L0.652757 22.0978L1.51508 19.4663Z" fill="white"/>
<path d="M4.52094 1.64551L5.38325 4.27702L3.12891 2.64915H5.92528L3.65862 4.27702L4.52094 1.64551Z" fill="white"/>
<path d="M4.52094 6.7373L5.38325 9.36882L3.12891 7.74095H5.92528L3.65862 9.36882L4.52094 6.7373Z" fill="white"/>
<path d="M4.52094 11.8291L5.38325 14.4606L3.12891 12.8327H5.92528L3.65862 14.4606L4.52094 11.8291Z" fill="white"/>
<path d="M4.52094 16.9204L5.38325 19.5519L3.12891 17.9241H5.92528L3.65862 19.5519L4.52094 16.9204Z" fill="white"/>
<path d="M4.52094 22.0122L5.38325 24.6437L3.12891 23.0159H5.92528L3.65862 24.6437L4.52094 22.0122Z" fill="white"/>
<path d="M7.539 4.19141L8.40132 6.82292L6.14697 5.19505H8.93103L6.67668 6.82292L7.539 4.19141Z" fill="white"/>
<path d="M7.539 9.2832L8.40132 11.9147L6.14697 10.2868H8.93103L6.67668 11.9147L7.539 9.2832Z" fill="white"/>
<path d="M7.539 14.375L8.40132 17.0065L6.14697 15.3786H8.93103L6.67668 17.0065L7.539 14.375Z" fill="white"/>
<path d="M7.539 19.4663L8.40132 22.0978L6.14697 20.47H8.93103L6.67668 22.0978L7.539 19.4663Z" fill="white"/>
<path d="M10.5571 1.64551L11.4071 4.27702L9.16504 2.64915H11.9491L9.69475 4.27702L10.5571 1.64551Z" fill="white"/>
<path d="M10.5571 6.7373L11.4071 9.36882L9.16504 7.74095H11.9491L9.69475 9.36882L10.5571 6.7373Z" fill="white"/>
<path d="M10.5571 11.8291L11.4071 14.4606L9.16504 12.8327H11.9491L9.69475 14.4606L10.5571 11.8291Z" fill="white"/>
<path d="M10.5571 16.9204L11.4071 19.5519L9.16504 17.9241H11.9491L9.69475 19.5519L10.5571 16.9204Z" fill="white"/>
<path d="M10.5571 22.0122L11.4071 24.6437L9.16504 23.0159H11.9491L9.69475 24.6437L10.5571 22.0122Z" fill="white"/>
<path d="M13.5629 4.19141L14.4252 6.82292L12.1709 5.19505H14.955L12.7006 6.82292L13.5629 4.19141Z" fill="white"/>
<path d="M13.5629 9.2832L14.4252 11.9147L12.1709 10.2868H14.955L12.7006 11.9147L13.5629 9.2832Z" fill="white"/>
<path d="M13.5629 14.375L14.4252 17.0065L12.1709 15.3786H14.955L12.7006 17.0065L13.5629 14.375Z" fill="white"/>
<path d="M13.5629 19.4663L14.4252 22.0978L12.1709 20.47H14.955L12.7006 22.0978L13.5629 19.4663Z" fill="white"/>
<path d="M16.581 1.64551L17.4433 4.27702L15.189 2.64915H17.973L15.7187 4.27702L16.581 1.64551Z" fill="white"/>
<path d="M16.581 6.7373L17.4433 9.36882L15.189 7.74095H17.973L15.7187 9.36882L16.581 6.7373Z" fill="white"/>
<path d="M16.581 11.8291L17.4433 14.4606L15.189 12.8327H17.973L15.7187 14.4606L16.581 11.8291Z" fill="white"/>
<path d="M16.581 16.9204L17.4433 19.5519L15.189 17.9241H17.973L15.7187 19.5519L16.581 16.9204Z" fill="white"/>
<path d="M16.581 22.0122L17.4433 24.6437L15.189 23.0159H17.973L15.7187 24.6437L16.581 22.0122Z" fill="white"/>
<path d="M19.5869 4.19141L20.4492 6.82292L18.1948 5.19505H20.9789L18.7369 6.82292L19.5869 4.19141Z" fill="white"/>
<path d="M19.5869 9.2832L20.4492 11.9147L18.1948 10.2868H20.9789L18.7369 11.9147L19.5869 9.2832Z" fill="white"/>
<path d="M19.5869 14.375L20.4492 17.0065L18.1948 15.3786H20.9789L18.7369 17.0065L19.5869 14.375Z" fill="white"/>
<path d="M19.5869 19.4663L20.4492 22.0978L18.1948 20.47H20.9789L18.7369 22.0978L19.5869 19.4663Z" fill="white"/>
<path d="M22.6049 1.64551L23.4672 4.27702L21.2129 2.64915H23.9969L21.7426 4.27702L22.6049 1.64551Z" fill="white"/>
<path d="M22.6049 6.7373L23.4672 9.36882L21.2129 7.74095H23.9969L21.7426 9.36882L22.6049 6.7373Z" fill="white"/>
<path d="M22.6049 11.8291L23.4672 14.4606L21.2129 12.8327H23.9969L21.7426 14.4606L22.6049 11.8291Z" fill="white"/>
<path d="M22.6049 16.9204L23.4672 19.5519L21.2129 17.9241H23.9969L21.7426 19.5519L22.6049 16.9204Z" fill="white"/>
<path d="M22.6049 22.0122L23.4672 24.6437L21.2129 23.0159H23.9969L21.7426 24.6437L22.6049 22.0122Z" fill="white"/>
</svg>
